<svg xmlns="http://www.w3.org/2000/svg" xmlns:xlink="http://www.w3.org/1999/xlink" viewBox="0,0,256,256" width="80px" height="80px" fill-rule="nonzero"><g fill="#0140ff" fill-rule="nonzero" stroke="none" stroke-width="1" stroke-linecap="butt" stroke-linejoin="miter" stroke-miterlimit="10" stroke-dasharray="" stroke-dashoffset="0" font-family="none" font-weight="none" font-size="none" text-anchor="none" style="mix-blend-mode: normal"><g transform="scale(4.83019,4.83019)"><path d="M27.05078,3.00586c-1.14001,0 -2.07031,0.92834 -2.07031,2.06836v11.08984c0,0.57001 0.22937,1.09094 0.60938,1.46094c0.36999,0.38001 0.89093,0.60938 1.46094,0.60938c1.07996,0 1.95898,0.87116 1.95898,1.95117v1.86914c0,1.08002 1.37976,1.52039 2.00977,0.65039l2.65039,-3.66016c0.37,-0.51001 0.95984,-0.81055 1.58984,-0.81055h6.28125c1.13995,0 2.05859,-0.9303 2.05859,-2.07031v-11.08984c0,-1.14001 -0.91864,-2.06836 -2.05859,-2.06836zM34.29492,6.40234c0.225,0 0.44943,0.1185 0.56445,0.35352l0.87109,1.75977c0.08996,0.19 0.26874,0.31964 0.46875,0.34961l1.95117,0.2793c0.52002,0.07996 0.72961,0.71008 0.34961,1.08008l-1.41016,1.38086c-0.15002,0.15002 -0.21973,0.35858 -0.17969,0.55859l0.33984,1.93164c0.09003,0.52002 -0.4599,0.90991 -0.91992,0.66992l-1.74023,-0.91992c-0.19,-0.08997 -0.40985,-0.08997 -0.58984,0l-1.74023,0.91992c-0.46997,0.23999 -1.00995,-0.1499 -0.91992,-0.66992l0.33008,-1.93164c0.02997,-0.20996 -0.02966,-0.40857 -0.17969,-0.55859l-1.41016,-1.38086c-0.38001,-0.36999 -0.17035,-1.00012 0.34961,-1.08008l1.93945,-0.2793c0.21002,-0.02997 0.39044,-0.15961 0.48047,-0.34961l0.88086,-1.75977c0.11499,-0.23502 0.33945,-0.35352 0.56445,-0.35352zM7.2207,6.49414c-2.04999,0 -3.71094,1.66089 -3.71094,3.71094v21.85938h4.04102v-4.09961c0,-1.71997 1.38934,-3.11914 3.10937,-3.11914h1.40039c0.62,0 1.19928,0.31982 1.5293,0.83984l2.19922,3.35938l2.19141,-3.36914c0.33996,-0.51001 0.91907,-0.83008 1.53906,-0.83008h1.39063c1.71997,0 3.10938,1.39917 3.10938,3.11914v4.09961h25.48047v-21.85937c0,-2.05005 -1.66095,-3.71094 -3.71094,-3.71094h-0.18945v9.66992c0,2.23999 -1.82056,4.07031 -4.06055,4.07031h-6.2793l-2.61914,3.64063c-0.58997,0.82001 -1.50977,1.28906 -2.50977,1.28906c-1.71997,0 -3.12109,-1.3894 -3.12109,-3.10937v-1.86914h-0.16016c-0.98999,0 -1.97949,-0.42993 -2.68945,-1.16992c-0.73999,-0.71002 -1.17969,-1.76154 -1.17969,-2.85156v-9.66992zM15.7793,14.83594c2.20996,0 4,1.7998 4,4.00977c0,2.20001 -1.79004,3.99023 -4,3.99023c-2.20001,0 -3.99023,-1.79022 -3.99023,-3.99023c0,-2.20996 1.79022,-4.00977 3.99024,-4.00976zM36.82031,21.21484h7.74023c0.55005,0 1,0.45001 1,1c0,0.56 -0.44995,1 -1,1h-7.74023c-0.54999,0 -1,-0.44 -1,-1c0,-0.54999 0.45001,-1 1,-1zM36.82031,25.14453h7.74023c0.55005,0 1,0.44995 1,1c0,0.56 -0.44995,1 -1,1h-7.74023c-0.54999,0 -1,-0.44 -1,-1c0,-0.55005 0.45001,-1 1,-1zM36.82031,29.07422h7.74023c0.55005,0 1,0.44995 1,1c0,0.54999 -0.44995,1 -1,1h-7.74023c-0.54999,0 -1,-0.45001 -1,-1c0,-0.55005 0.45001,-1 1,-1zM3.5,34.06445v2.59961c0,2.04999 1.67072,3.71094 3.7207,3.71094h38.56836c2.04999,0 3.71094,-1.66095 3.71094,-3.71094v-2.59961zM22.07031,36.22461h0.00977c0.54999,0 1,0.44 1,1c0,0.54999 -0.45001,1 -1,1c-0.56,0 -1.00977,-0.45001 -1.00977,-1c0,-0.56 0.44,-1 1,-1zM26.5,36.22461h0.00977c0.54999,0 1,0.44 1,1c0,0.54999 -0.45001,1 -1,1c-0.54999,0 -1.00977,-0.45001 -1.00977,-1c0,-0.56 0.45001,-1 1,-1zM30.92969,36.22461h0.00977c0.54999,0 1,0.44 1,1c0,0.54999 -0.45001,1 -1,1c-0.54999,0 -1,-0.45001 -1,-1c0,-0.56 0.44025,-1 0.99023,-1zM22.76953,42.375c0.09003,1.79999 -0.96997,3.66913 -3.25,5.61914h-3.33008c-0.54999,0 -1,0.45001 -1,1c0,0.56 0.45001,1 1,1h20.63086c0.54999,0 1,-0.44 1,-1c0,-0.54999 -0.45001,-1 -1,-1h-3.33008c-2.27997,-1.95001 -3.34021,-3.81915 -3.24023,-5.61914z"></path></g></g></svg>