<svg xmlns="http://www.w3.org/2000/svg" xmlns:xlink="http://www.w3.org/1999/xlink" viewBox="0,0,256,256" width="80px" height="80px" fill-rule="nonzero"><g fill="#0140ff" fill-rule="nonzero" stroke="none" stroke-width="1" stroke-linecap="butt" stroke-linejoin="miter" stroke-miterlimit="10" stroke-dasharray="" stroke-dashoffset="0" font-family="none" font-weight="none" font-size="none" text-anchor="none" style="mix-blend-mode: normal"><g transform="scale(3.65714,3.65714)"><path d="M18.61523,3.07422c-3.46997,0 -6.29102,2.8208 -6.29102,6.29102v8.66992h-0.20899c-4,0 -7.25,3.25 -7.25,7.25v31.5c-0.48999,0.1499 -0.93091,0.45996 -1.21094,0.91016c-0.40991,0.62012 -0.47974,1.3999 -0.17969,2.08984l2.59961,5.83008c0.34998,0.7998 1.12976,1.31055 2.00977,1.31055h53.83984c0.87,0 1.66174,-0.51074 2.01172,-1.31055l2.58984,-5.83008c0.29993,-0.68994 0.2301,-1.46973 -0.16992,-2.08984c-0.29004,-0.4502 -0.7207,-0.77002 -1.2207,-0.91016v-31.5c0,-4 -3.25024,-7.25 -7.24023,-7.25h-0.20898v-8.66992c0,-3.47021 -2.83093,-6.29102 -6.29102,-6.29102zM18.61523,5.07422h32.7793c2.36011,0 4.29102,1.9209 4.29102,4.29102v47.28906h-41.36133v-47.28906c0,-2.37012 1.92114,-4.29102 4.29102,-4.29102zM24.57422,7.49414c-4.58314,0 -8.25,3.71216 -8.25,8.25c0,4.62792 3.77652,8.25 8.25,8.25c4.57162,0 8.25,-3.73249 8.25,-8.25c0,-4.54689 -3.70473,-8.25 -8.25,-8.25zM38.02539,8.3457c-0.55005,0 -1,0.43994 -1,1c0,0.5498 0.44995,1 1,1h13.80859c0.54993,0 1,-0.4502 1,-1c0,-0.56006 -0.45007,-1 -1,-1zM24.50586,9.49609c1.85055,-0.01763 3.70061,0.78049 4.95898,2.35938l-4.7793,2.67969l-4.2207,-3.5c1.16216,-1.01841 2.6017,-1.52535 4.04102,-1.53906zM30.44531,13.5957c0.25,0.68994 0.37891,1.40869 0.37891,2.14844c0,1.84876 -0.82744,3.71 -2.43945,4.95117c-3.48464,-6.48261 0.91879,1.70398 -2.46094,-4.56055zM38.02539,14.11523c-0.55005,0 -1,0.43994 -1,1c0,0.54981 0.44995,1 1,1h13.80859c0.54993,0 1,-0.4502 1,-1c0,-0.56006 -0.45007,-1 -1,-1zM12.11523,20.03516h0.20899v36.61914h-5.45898v-31.36914c0,-2.8999 2.36011,-5.25 5.25,-5.25zM57.68555,20.03516h0.20898c2.89014,0 5.24023,2.3501 5.24023,5.25v31.36914h-5.44922zM52.20508,21.18555l-2.05078,0.14844c-0.90171,0.06501 -1.38006,1.1188 -0.81055,1.8418l0.0918,0.10938c-15.85567,13.89609 -10.38725,9.10377 -11.57031,10.14063c-0.10002,-0.07463 -7.06528,-5.27287 -6.62109,-4.94141c-0.3501,-0.26025 -0.80994,-0.26904 -1.16992,-0.0293l-12.21875,8.34961c-0.46008,0.31006 -0.57165,0.93066 -0.26172,1.39062c0.31508,0.46382 0.97269,0.55499 1.39063,0.25977l11.63086,-7.93945c0.11757,0.08761 7.13781,5.31954 6.70898,5c0.37,0.27978 0.90002,0.25928 1.25,-0.05078l12.08984,-10.59961l0.08008,0.10938c0.26001,0.34033 0.67957,0.49951 1.09961,0.42969c0.41003,-0.07031 0.75085,-0.36963 0.88086,-0.76953l0.64063,-1.94922c0.25365,-0.70145 -0.22902,-1.5 -1.16016,-1.5zM51.99805,28.34961c-0.0475,0.00873 -0.09277,0.02954 -0.13281,0.06445l-4.7207,4.68164c-0.04993,0.0498 -0.08008,0.10938 -0.08008,0.17969v19.23047c0,0.13965 0.12,0.25 0.25,0.25h4.73047c0.14001,0 0.25,-0.11035 0.25,-0.25v-23.91016c0,-0.1001 -0.0603,-0.19043 -0.15039,-0.23047c-0.04999,-0.02002 -0.09898,-0.02435 -0.14648,-0.01562zM44.5918,35.59961c-0.04749,0.00873 -0.09192,0.02954 -0.12695,0.06445l-4.7207,4.71094c-0.05005,0.04004 -0.08008,0.11035 -0.08008,0.16992v11.96094c0,0.13965 0.11011,0.25 0.25,0.25h4.73047c0.14014,0 0.25,-0.11035 0.25,-0.25v-16.66016c0,-0.1001 -0.06018,-0.20068 -0.16016,-0.23047c-0.04504,-0.02002 -0.09509,-0.02435 -0.14258,-0.01562zM29.80664,36.67773c-0.04625,0.00751 -0.09277,0.02661 -0.13281,0.05664l-4.71875,3.88086c-0.06006,0.04004 -0.08984,0.11963 -0.08984,0.18945v11.70117c0,0.13965 0.11011,0.25 0.25,0.25h4.71875c0.14001,0 0.25,-0.11035 0.25,-0.25v-15.58008c0,-0.1001 -0.04858,-0.18066 -0.13867,-0.23047c-0.04498,-0.02002 -0.09242,-0.02509 -0.13867,-0.01758zM32.55273,36.9082c-0.04625,-0.00751 -0.09363,-0.00244 -0.13867,0.01758c-0.08996,0.04004 -0.14844,0.12842 -0.14844,0.22852v15.35156c0,0.13965 0.10986,0.25 0.25,0.25h4.72852c0.12988,0 0.25,-0.11035 0.25,-0.25v-11.07031c0,-0.06982 -0.02979,-0.1416 -0.08984,-0.19141l-4.71875,-4.2793c-0.03998,-0.03003 -0.08656,-0.04913 -0.13281,-0.05664zM22.40625,42.27148c-0.04623,0.005 -0.09088,0.02271 -0.13086,0.05273l-4.7207,3.82031c-0.05994,0.05029 -0.08984,0.12109 -0.08984,0.20117v6.16016c0,0.13965 0.10999,0.25 0.25,0.25h4.7207c0.14001,0 0.25,-0.11035 0.25,-0.25v-9.99023c0,-0.08984 -0.05066,-0.18066 -0.14062,-0.2207c-0.04498,-0.01978 -0.09244,-0.02844 -0.13867,-0.02344zM34.99414,59.875c1.07996,0 1.95117,0.86914 1.95117,1.93945c0,1.06982 -0.87121,1.92969 -1.95117,1.92969c-1.06006,0 -1.92969,-0.85986 -1.92969,-1.92969c0,-1.07031 0.86963,-1.93945 1.92969,-1.93945z"></path></g></g></svg>