<svg xmlns="http://www.w3.org/2000/svg" xmlns:xlink="http://www.w3.org/1999/xlink" viewBox="0,0,256,256" width="80px" height="80px" fill-rule="nonzero"><g fill="#0140ff" fill-rule="nonzero" stroke="none" stroke-width="1" stroke-linecap="butt" stroke-linejoin="miter" stroke-miterlimit="10" stroke-dasharray="" stroke-dashoffset="0" font-family="none" font-weight="none" font-size="none" text-anchor="none" style="mix-blend-mode: normal"><g transform="scale(3.76471,3.76471)"><path d="M5.80078,2.80078c-2.1,0 -3.80078,1.69883 -3.80078,3.79883v14.09961c0,2.1 1.70078,3.80078 3.80078,3.80078h7v27.19922c0,3.5 2.89844,6.40039 6.39844,6.40039h11.80078v5.20117h-2.5c-0.5,0 -0.90039,0.39844 -0.90039,0.89844c0,0.5 0.40039,0.90039 0.90039,0.90039h21.90039c0.5,0 0.90039,-0.40039 0.90039,-0.90039c0,-0.5 -0.40039,-0.89844 -0.90039,-0.89844h-2.5v-5.20117h11.69922c3.5,0 6.40039,-2.90039 6.40039,-6.40039v-33c0,-3.5 -2.80039,-6.39844 -6.40039,-6.39844h-25.19922v-5.70117c0,-2.1 -1.70078,-3.79883 -3.80078,-3.79883zM14.19922,7.09961h2.20117c0.3,0 0.5,0.2 0.5,0.5v11.30078c0,0.3 -0.2,0.5 -0.5,0.5h-2.20117c-0.3,0 -0.5,-0.2 -0.5,-0.5v-3.5v-7.80078c0,-0.3 0.2,-0.5 0.5,-0.5zM8.80078,11.80078h2.19922c0.3,0 0.5,0.2 0.5,0.5v6.69922c0,0.3 -0.2,0.5 -0.5,0.5h-2.19922c-0.3,0 -0.5,-0.2 -0.5,-0.5v-6.69922c0,-0.3 0.2,-0.5 0.5,-0.5zM19.5,13h2.19922c0.3,0 0.5,0.2 0.5,0.5v5.5c0,0.3 -0.2,0.5 -0.5,0.5h-2.19922c-0.3,0 -0.5,-0.2 -0.5,-0.5v-5.5c0,-0.2 0.2,-0.5 0.5,-0.5zM34.40039,14.30078h25.19922c2.4,0 4.40039,1.99844 4.40039,4.39844v29.30078h-49.19922v-23.5h6.29883l5.40039,4.90039c0.4,0.4 0.9,0.59961 1.5,0.59961c0.3,0 0.60039,-0.09922 0.90039,-0.19922c0.8,-0.4 1.29883,-1.1 1.29883,-2v-3.30078h0.40039c2.1,0 3.80078,-1.70078 3.80078,-3.80078zM24.80078,15.69922h2.19922c0.3,0 0.5,0.2 0.5,0.5v2.80078c0,0.3 -0.2,0.5 -0.5,0.5h-2.19922c-0.3,0 -0.5,-0.2 -0.5,-0.5v-2.80078c0,-0.3 0.2,-0.5 0.5,-0.5zM54.09961,17.80078c-0.3,0 -0.59883,0.09883 -0.79883,0.29883l-1.80078,2c-1.7,-1.2 -3.69922,-1.79883 -5.69922,-1.79883c-5.5,0 -10,4.5 -10,10c0,3.5 1.79961,6.59844 4.59961,8.39844l-1.70117,1.90039h-5.19922c-0.6,0 -1,0.5 -1,1c0,0.5 0.4,1 1,1h5.69922c0.3,0 0.60078,-0.09883 0.80078,-0.29883l2.30078,-2.60156c1.1,0.4 2.3,0.60156 3.5,0.60156c5.5,0 10,-4.5 10,-10c0,-2.6 -1.00117,-5.00078 -2.70117,-6.80078l1.5,-1.69922h5.20117c0.6,0 1,-0.5 1,-1c0,-0.5 -0.4,-1 -1,-1zM45.19922,20.40039v7.40039c0,0.5 0.40039,0.89844 0.90039,0.89844h7.70117c-0.2,4.2 -3.7,7.60156 -8,7.60156c-0.7,0 -1.40156,-0.10078 -2.10156,-0.30078l0.40039,-0.40039c0.4,-0.4 0.30039,-1.00039 -0.09961,-1.40039c-0.4,-0.4 -1.00039,-0.29844 -1.40039,0.10156l-0.79883,0.89844c-2.4,-1.4 -3.90039,-3.99844 -3.90039,-6.89844c0,-4.2 3.19883,-7.60039 7.29883,-7.90039zM18.69922,37.30078c-0.6,0 -1,0.5 -1,1c0,0.5 0.5,1 1,1h5.80078c0.5,0 1,-0.4 1,-1c0,-0.5 -0.5,-1 -1,-1zM49.90039,39.40039c-0.9,0 -1.59961,0.69961 -1.59961,1.59961v2.5c0,0.9 0.69961,1.59961 1.59961,1.59961h2.5c0.9,0 1.59961,-0.69961 1.59961,-1.59961v-2.5c0,-0.9 -0.69961,-1.59961 -1.59961,-1.59961zM57.40039,39.40039c-0.9,0 -1.59961,0.69961 -1.59961,1.59961v2.5c0,0.9 0.69961,1.59961 1.59961,1.59961h2.5c0.9,0 1.59961,-0.69961 1.59961,-1.59961v-2.5c0,-0.9 -0.69961,-1.59961 -1.59961,-1.59961zM18.69922,41.30078c-0.6,0 -1,0.4 -1,1c0,0.5 0.4,1 1,1h10.40039c0.6,0 1,-0.5 1,-1c0,-0.6 -0.4,-1 -1,-1zM50.30078,41.40039h1.69922v1.69922h-1.69922z"></path></g></g></svg>