<svg xmlns="http://www.w3.org/2000/svg" xmlns:xlink="http://www.w3.org/1999/xlink" viewBox="0,0,256,256" width="80px" height="80px" fill-rule="nonzero"><g fill="#0140ff" fill-rule="nonzero" stroke="none" stroke-width="1" stroke-linecap="butt" stroke-linejoin="miter" stroke-miterlimit="10" stroke-dasharray="" stroke-dashoffset="0" font-family="none" font-weight="none" font-size="none" text-anchor="none" style="mix-blend-mode: normal"><g transform="scale(1.8963,1.8963)"><path d="M15.76172,15.71484c-3.12695,0 -5.67187,2.54785 -5.67187,5.67969v68.70117h-3.58984c-1.37891,0 -2.5,1.12109 -2.5,2.5v24.13868c0,0.58825 0.21167,1.12341 0.55273,1.55078h-1.05273c-0.27637,0 -0.5,0.22363 -0.5,0.5c0,0.27636 0.22363,0.5 0.5,0.5h44.23828h56.69336c0.70923,0 1.35828,-0.34192 1.78516,-0.88672c0.02905,0.01477 0.06195,0.03296 0.08984,0.04687c1.04785,0.55664 2.19336,0.83985 3.4043,0.83985h14.5h4.78906c0.27637,0 0.5,-0.22364 0.5,-0.5c0,-0.27637 -0.22363,-0.5 -0.5,-0.5h-2.52148c0.98596,-1.06112 0.82349,-2.22992 0.84179,-2.33008c0,-0.83008 -0.3125,-1.58106 -0.82812,-2.13867c2.97084,-0.20736 2.86786,-3.21206 2.9082,-3.3125c0,-0.85254 -0.3457,-1.62598 -0.9043,-2.18946c1.40723,-0.30664 2.46289,-1.5625 2.46289,-3.06054v-0.19922c0,-0.91602 -0.39453,-1.74121 -1.02343,-2.31446c2.25537,-0.80915 2.03239,-3.03411 2.06445,-3.13476c0,-1.7207 -1.40039,-3.12109 -3.12109,-3.12109h-4c0.01104,-0.13831 0.04101,-0.26733 0.04101,-0.41016v-74.67969c0,-3.13184 -2.54785,-5.67969 -5.67969,-5.67969zM15.76172,16.71484h103.47851c2.58008,0 4.67969,2.09961 4.67969,4.67969v68.70117h-5.53515c-0.05438,-1.41542 -0.31786,-2.906 -1.07422,-4.27148h1.92968c0.27637,0 0.5,-0.22363 0.5,-0.5v-63.92969c0,-0.27637 -0.22363,-0.5 -0.5,-0.5h-103.47851c-0.27637,0 -0.5,0.22363 -0.5,0.5v63.92969c0,0.27637 0.22363,0.5 0.5,0.5h94.89453l0.42773,3.89453c0.01606,0.12378 -0.00128,0.25171 0,0.37695h-99.99414v-68.70117c0,-2.58008 2.09668,-4.67969 4.67188,-4.67969zM16.26172,21.89453h102.47851v62.92969h-2.12695c-0.26117,-0.30982 -0.55121,-0.59045 -0.88867,-0.81836c-1.78223,-1.16895 -3.47461,-0.78809 -4.33008,-0.45508c-0.50354,0.20032 -0.81372,0.70068 -0.82226,1.27344h-94.31055zM101.33008,24.52148c-0.27637,0 -0.5,0.22363 -0.5,0.5c0,0.27637 0.22363,0.5 0.5,0.5h1.20898c0.27637,0 0.5,-0.22363 0.5,-0.5c0,-0.27637 -0.22363,-0.5 -0.5,-0.5zM105.23047,24.52148c-0.27637,0 -0.5,0.22363 -0.5,0.5c0,0.27637 0.22363,0.5 0.5,0.5h9.98828c0.27637,0 0.5,-0.22363 0.5,-0.5c0,-0.27637 -0.22363,-0.5 -0.5,-0.5zM88.74219,26.25977c-1.48926,0 -2.70117,1.21191 -2.70117,2.70117c0,0.40845 0.09869,0.79126 0.26172,1.13867l-10.875,7.75195c-0.49414,-0.646 -1.26398,-1.07031 -2.13867,-1.07031c-1.09027,0 -2.02679,0.65357 -2.45312,1.58594l-7.79492,-3.31641c0.04022,-0.18518 0.06445,-0.37524 0.06445,-0.57227c0,-1.48926 -1.21191,-2.70117 -2.70117,-2.70117c-1.48926,0 -2.70117,1.21191 -2.70117,2.70117c0,0.44311 0.11688,0.85522 0.30664,1.22461l-10.26367,7.95508c-0.49487,-0.55042 -1.20538,-0.9043 -2.00195,-0.9043c-1.48926,0 -2.70117,1.21191 -2.70117,2.70117c0,1.48926 1.21191,2.70117 2.70117,2.70117c1.48926,0 2.70117,-1.21191 2.70117,-2.70117c0,-0.33044 -0.0686,-0.6427 -0.17773,-0.93555l10.35547,-8.02539c0.47668,0.42188 1.09631,0.68555 1.78125,0.68555c0.93732,0 1.76343,-0.48145 2.24805,-1.20898l7.94922,3.38281c-0.00214,0.04407 -0.01367,0.08435 -0.01367,0.12891c0,1.48926 1.21191,2.70117 2.70117,2.70117c1.49023,0 2.70117,-1.21191 2.70117,-2.70117c0,-0.25269 -0.04419,-0.49243 -0.10937,-0.72461l11.00391,-7.8457c0.48486,0.46167 1.13684,0.75 1.85742,0.75c1.49023,0 2.70117,-1.21191 2.70117,-2.70117c0,-1.48926 -1.21094,-2.70117 -2.70117,-2.70117zM37.17578,26.60938c-0.13987,-0.00365 -0.28355,0.05323 -0.39062,0.17578c-0.00128,0.00146 -0.00268,0.00049 -0.00391,0.00195l-2.79883,3.32031c-0.17871,0.21094 -0.15234,0.52734 0.05859,0.70508c0.21094,0.17773 0.52734,0.15234 0.70508,-0.06055l1.91211,-2.26758v43.32031c0,0.27637 0.22363,0.5 0.5,0.5h62.11328l-2.27734,1.91211c-0.21191,0.17773 -0.23828,0.49219 -0.06055,0.70313c0.17725,0.21235 0.49303,0.23977 0.70313,0.0625l3.32226,-2.78906c0.20143,-0.16763 0.26923,-0.5298 0.00196,-0.76172l-0.00196,-0.00195l-3.32031,-2.80078c-0.20996,-0.17676 -0.52637,-0.15039 -0.70508,0.06055c-0.17871,0.21094 -0.15039,0.52539 0.06055,0.70313l2.26758,1.91211h-5.98437c0.16382,-0.28699 0.26563,-0.61328 0.26563,-0.9668v-30.86914c0,-1.08496 -0.88184,-1.96875 -1.9668,-1.96875h-5.65039c-1.08496,0 -1.96875,0.88379 -1.96875,1.96875v30.86914c0,0.35352 0.10181,0.67981 0.26563,0.9668h-5.10742c0.16382,-0.28699 0.26563,-0.61328 0.26563,-0.9668v-21.125c0,-1.08496 -0.88184,-1.96875 -1.9668,-1.96875h-5.66406c-1.08496,0 -1.96875,0.88379 -1.96875,1.96875v21.125c0,0.35352 0.10181,0.67981 0.26563,0.9668h-5.10742c0.1637,-0.28699 0.26563,-0.61328 0.26563,-0.9668v-24.60352c0,-1.08496 -0.88184,-1.9668 -1.9668,-1.9668h-5.65039c-1.08496,0 -1.96875,0.88184 -1.96875,1.9668v24.60352c0,0.35352 0.10181,0.67981 0.26563,0.9668h-5.10742c0.16382,-0.28699 0.26563,-0.61328 0.26563,-0.9668v-12.2168c0,-1.08496 -0.88379,-1.96875 -1.96875,-1.96875h-5.66406c-1.08496,0 -1.9668,0.88379 -1.9668,1.96875v12.2168c0,0.35352 0.10193,0.67981 0.26563,0.9668h-4.05078v-42.82813l1.91016,2.27539c0.17725,0.21235 0.49498,0.23781 0.70508,0.06055c0.21191,-0.17773 0.23828,-0.49219 0.06055,-0.70312l-2.78906,-3.32031c-0.09363,-0.11236 -0.22927,-0.17604 -0.36914,-0.17969zM88.74219,27.25977c0.93848,0 1.70117,0.7627 1.70117,1.70117c0,0.93848 -0.7627,1.70117 -1.70117,1.70117c-0.93848,0 -1.70117,-0.7627 -1.70117,-1.70117c0,-0.92188 0.7793,-1.70117 1.70117,-1.70117zM101.33008,28.35352c-0.27637,0 -0.5,0.22363 -0.5,0.5c0,0.27637 0.22363,0.5 0.5,0.5h1.20898c0.27637,0 0.5,-0.22363 0.5,-0.5c0,-0.27637 -0.22363,-0.5 -0.5,-0.5zM105.23047,28.35352c-0.27637,0 -0.5,0.22363 -0.5,0.5c0,0.27637 0.22363,0.5 0.5,0.5h9.98828c0.27637,0 0.5,-0.22363 0.5,-0.5c0,-0.27637 -0.22363,-0.5 -0.5,-0.5zM101.33008,32.18359c-0.27637,0 -0.5,0.22363 -0.5,0.5c0,0.27637 0.22363,0.5 0.5,0.5h1.20898c0.27637,0 0.5,-0.22363 0.5,-0.5c0,-0.27637 -0.22363,-0.5 -0.5,-0.5zM105.23047,32.18359c-0.27637,0 -0.5,0.22363 -0.5,0.5c0,0.27637 0.22363,0.5 0.5,0.5h9.98828c0.27637,0 0.5,-0.22363 0.5,-0.5c0,-0.27637 -0.22363,-0.5 -0.5,-0.5zM60.4043,32.77734c0.93846,0 1.70117,0.7627 1.70117,1.70117c0,0.93277 -0.75845,1.70117 -1.70117,1.70117c-0.93848,0 -1.70117,-0.7627 -1.70117,-1.70117c0,-0.93848 0.7627,-1.70117 1.70117,-1.70117zM73.28906,37.78125c0.93848,0 1.70117,0.7627 1.70117,1.70117c0,0.93848 -0.7627,1.70117 -1.70117,1.70117c-0.93848,0 -1.70117,-0.7627 -1.70117,-1.70117c0,-0.93848 0.7627,-1.70117 1.70117,-1.70117zM85.92578,38.5h5.64844c0.5332,0 0.96875,0.43555 0.96875,0.96875v30.86914c0,0.5332 -0.43555,0.9668 -0.96875,0.9668h-5.64844c-0.5332,0 -0.96875,-0.43359 -0.96875,-0.9668v-30.86914c0,-0.5332 0.43555,-0.96875 0.96875,-0.96875zM45.74414,43.75391c0.93848,0 1.70117,0.7627 1.70117,1.70117c0,0.93848 -0.7627,1.70117 -1.70117,1.70117c-0.93848,0 -1.70117,-0.7627 -1.70117,-1.70117c0,-0.93848 0.7627,-1.70117 1.70117,-1.70117zM57.58594,44.76758h5.65039c0.5332,0 0.9668,0.43359 0.9668,0.9668v24.60352c0,0.5332 -0.43359,0.9668 -0.9668,0.9668h-5.65039c-0.5332,0 -0.9668,-0.43359 -0.9668,-0.9668v-24.60352c0,-0.5332 0.43359,-0.9668 0.9668,-0.9668zM71.74805,48.24414h5.66406c0.54297,0 0.96875,0.42578 0.96875,0.96875v21.125c0,0.5332 -0.43555,0.9668 -0.96875,0.9668h-5.66406c-0.5332,0 -0.9668,-0.43359 -0.9668,-0.9668v-21.125c0,-0.54297 0.42383,-0.96875 0.9668,-0.96875zM43.41016,57.15234h5.66602c0.54297,0 0.9668,0.42578 0.9668,0.96875v12.2168c0,0.5332 -0.43359,0.9668 -0.9668,0.9668h-5.66602c-0.5332,0 -0.9668,-0.43359 -0.9668,-0.9668v-12.2168c0,-0.54297 0.4248,-0.96875 0.9668,-0.96875zM27.2207,76.83398c-0.27637,0 -0.5,0.22363 -0.5,0.5c0,0.27637 0.22363,0.5 0.5,0.5h80.5586c0.27636,0 0.5,-0.22363 0.5,-0.5c0,-0.27637 -0.22364,-0.5 -0.5,-0.5zM48.69531,81.08398c-0.27637,0 -0.5,0.22363 -0.5,0.5c0,0.27637 0.22363,0.5 0.5,0.5h37.61133c0.27637,0 0.5,-0.22363 0.5,-0.5c0,-0.27637 -0.22363,-0.5 -0.5,-0.5zM113.19336,84.21875c0.59338,0.00745 1.27734,0.16113 1.97656,0.61914c2.03841,1.37984 2.47002,4.87736 2.11719,7.38867l-0.74023,4.67969c-0.02247,0.14453 0.01757,0.29297 0.11328,0.4043c0.09472,0.11035 0.23437,0.17383 0.38086,0.17383h11.83984c1.16894,0 2.11914,0.95215 2.11914,2.12109c-0.04102,0.10001 0.03935,2.31836 -2.12109,2.31836l-5.54297,0.0039c-0.27637,0 -0.5,0.22364 -0.5,0.5c0,0.27637 0.22363,0.5 0.5,0.5h4.49804c0.00287,0 0.0069,-0.00183 0.00977,-0.00195c1.16876,0.00733 2.11523,0.9585 2.11523,2.12891v0.19922c0,1.1748 -0.9541,2.13086 -2.1289,2.13086c-0.2068,-0.00007 -6.32401,-0.00204 -6.05469,-0.00196c-0.27637,0 -0.5,0.22364 -0.5,0.5c0,0.27637 0.22363,0.5 0.5,0.5h4.48633c0.00342,0 0.00439,0.00196 0.00781,0.00196c1.17481,0 2.13086,0.95019 2.13086,2.11914c-0.04117,0.09999 0.03952,2.32031 -2.13086,2.32031c-0.10268,0.00007 -5.90172,0.00416 -5.53515,0.0039c-0.27637,0 -0.50001,0.22364 -0.5,0.5c0,0.27637 0.22363,0.5 0.5,0.5h3.52929c0.0025,0 0.00531,0.00013 0.00781,0c1.15088,0.03541 2.04883,0.96424 2.04883,2.12696c-0.04062,0.1 0.03858,2.33008 -2.11133,2.33008h-14.5c-1.04589,0 -2.03222,-0.24414 -2.94531,-0.72852c-0.0332,-0.0166 -0.06738,-0.0332 -0.10156,-0.05078c0.03906,-0.16602 0.05859,-0.33789 0.05859,-0.51172v-15.42773l4.8711,-9.37696c0.2666,-0.49902 0.42968,-1.01856 0.48437,-1.53125c0.0459,-0.35352 0.04688,-0.71387 0.00195,-1.05859l-0.47851,-4.32422c0.00606,-0.16406 -0.15513,-0.66619 0.16211,-0.79492c0.33642,-0.13037 0.83826,-0.26917 1.43164,-0.26172zM6.5,91.0957h35.12109c0.82715,0 1.5,0.67285 1.5,1.5v20.60157h-38.12109v-20.60157c0,-0.82715 0.67285,-1.5 1.5,-1.5zM43.60742,91.0957h67.35742c-0.06396,0.21045 -0.14679,0.42041 -0.25781,0.62891l-4.2793,8.23828c-0.39032,-0.70398 -1.13305,-1.1875 -1.99609,-1.1875h-7.37109c-1.1593,0 -2.11023,0.86401 -2.25977,1.97852c-76.52633,-0.00196 -7.25081,-0.00002 -50.67969,0v-8.15821c0,-0.56506 -0.19659,-1.08093 -0.51367,-1.5zM118.39062,91.0957h5.5293v4.97852c0,0.14429 -0.0274,0.27331 -0.04101,0.41016h-6.25391c0.494,-3.29504 0.70269,-4.00165 0.76562,-5.38867zM67.51758,93.35156c-1.41797,0 -2.57227,1.15234 -2.57227,2.57031c0,1.41797 1.1543,2.57227 2.57227,2.57227c1.41797,0 2.57227,-1.1543 2.57227,-2.57227c0,-1.41797 -1.1543,-2.57031 -2.57227,-2.57031zM67.51758,94.35156c0.86621,0 1.57227,0.7041 1.57227,1.57031c0,0.86621 -0.70606,1.57227 -1.57227,1.57227c-0.86621,0 -1.57227,-0.70605 -1.57227,-1.57227c0,-0.86621 0.70605,-1.57031 1.57227,-1.57031zM22.10742,96.4082c-1.33934,-0.07604 -2.63672,0.96536 -2.63672,2.48633v7.14063c0,2.03672 2.30451,3.21417 3.94141,2.02539l4.94727,-3.57813c1.3156,-0.93739 1.45021,-2.95153 0.00391,-4.0332l-4.94922,-3.56836c-0.40936,-0.29753 -0.86019,-0.44731 -1.30664,-0.47266zM22.04492,97.4082c0.26687,0.01532 0.53616,0.10367 0.78125,0.28125l4.94336,3.56641c0.89642,0.67395 0.77525,1.86783 0.00781,2.41406l-4.95117,3.58008c-0.98404,0.70918 -2.35547,0.00852 -2.35547,-1.21484v-7.14063c0,-0.912 0.77361,-1.53229 1.57422,-1.48633zM97.06055,99.77539h7.36914c0.71093,0 1.29101,0.57324 1.29101,1.2793v15.93945c0,0.65631 -0.54105,1.29102 -1.29101,1.29102h-7.36914c-0.71094,0 -1.29102,-0.58008 -1.29102,-1.29102v-15.93945c0,-0.70606 0.58008,-1.2793 1.29102,-1.2793zM44.12109,101.75391h11.88672c-0.12671,5.31115 -2.23724,10.29004 -6.00781,14.06054l-2.4707,2.47071h-3.96289c0.34107,-0.42737 0.55469,-0.96253 0.55469,-1.55078zM57.02539,101.75391h20.95508c0.12622,5.58081 2.35669,10.80883 6.31641,14.76757l1.76367,1.76368h-37.11719l1.76367,-1.76368c3.95972,-3.95971 6.19214,-9.18774 6.31836,-14.76757zM78.99805,101.75391h15.77148v15.24023c0,0.47852 0.1485,0.92322 0.40039,1.29102h-7.69531l-2.4707,-2.47071c-3.77057,-3.76965 -5.87915,-8.74841 -6.00586,-14.06054zM101.76172,111.98438c-1.3125,0 -2.38281,1.06835 -2.38281,2.38085c0,1.31739 1.07031,2.38868 2.38281,2.38868c1.29804,0 2.3789,-1.06431 2.3789,-2.38868c0,-1.29422 -1.04804,-2.38085 -2.3789,-2.38085zM57.61328,112.11914c-0.27637,0 -0.5,0.22363 -0.5,0.5c0,0.27637 0.22363,0.5 0.5,0.5h19.63086c0.27637,0 0.5,-0.22363 0.5,-0.5c0,-0.27637 -0.22363,-0.5 -0.5,-0.5zM101.76172,112.98438c0.74374,0 1.37891,0.6119 1.3789,1.38085c0,0.79151 -0.66203,1.38868 -1.3789,1.38868c-0.76172,0 -1.38281,-0.62207 -1.38281,-1.38868c0,-0.76074 0.62109,-1.38085 1.38281,-1.38085zM5,114.19727h38.12109v2.53711c0,0.82714 -0.67285,1.5 -1.5,1.5h-35.12109c-0.82715,0 -1.5,-0.67286 -1.5,-1.5z"></path></g></g></svg>