<svg xmlns="http://www.w3.org/2000/svg" xmlns:xlink="http://www.w3.org/1999/xlink" viewBox="0,0,256,256" width="80px" height="80px" fill-rule="nonzero"><g fill="#0140ff" fill-rule="nonzero" stroke="none" stroke-width="1" stroke-linecap="butt" stroke-linejoin="miter" stroke-miterlimit="10" stroke-dasharray="" stroke-dashoffset="0" font-family="none" font-weight="none" font-size="none" text-anchor="none" style="mix-blend-mode: normal"><g transform="scale(3.65714,3.65714)"><path d="M48.24219,3.42188c-0.38889,-0.02481 -0.77173,0.17896 -0.95703,0.54883l-1.87305,3.73828c-0.24756,0.49365 -0.04883,1.09473 0.44531,1.3418c0.49413,0.24874 1.0951,0.04544 1.3418,-0.44727l1.87305,-3.73633c0.24756,-0.49365 0.04883,-1.09424 -0.44531,-1.3418c-0.12341,-0.06177 -0.25513,-0.09525 -0.38477,-0.10352zM34.14063,4.16797c-0.2064,0.00544 -0.41611,0.04333 -0.62109,0.11328c-0.82007,0.29004 -1.35913,1.02832 -1.36914,1.89844c-0.11987,5.99023 -2.70032,10.30127 -5.57031,13.63086h-12.38086c-4.30994,0 -7.79883,3.50049 -7.79883,7.80078v27.7793h-1.08984c-0.54004,0 -0.9707,0.44092 -0.9707,0.9707v5.05859c0,2.8496 2.31055,5.16016 5.14063,5.16016h51.03906c2.82996,0 5.14063,-2.31055 5.14063,-5.16016v-5.05859c0,-0.52978 -0.43066,-0.9707 -0.9707,-0.9707h-1.08984v-27.7793c0,-4.30029 -3.48889,-7.80078 -7.79883,-7.80078h-7.85156l-0.76953,-0.94922l-0.00586,-0.00781c1.22119,-1.63037 1.23572,-3.96045 -0.10156,-5.59375c-1.34168,-1.63867 -3.63074,-2.08399 -5.4707,-1.20703l-0.00195,-0.00195l-5.83008,-7.13086c-0.41254,-0.50244 -1.00971,-0.76827 -1.62891,-0.75195zM34.2207,6.19141c0.0913,0.1121 18.3118,22.48357 17.20898,21.12891c-9.06995,-1.6499 -15.46021,2.52929 -20.16016,5.75977l-6.75977,-8.24023c5.50276,-5.32881 9.50083,-10.40712 9.71094,-18.64844zM52.64063,7.43555c-0.25519,-0.01868 -0.51733,0.05908 -0.72656,0.24023l-3.16211,2.73437c-0.41748,0.36084 -0.46289,0.99219 -0.10156,1.41016c0.36084,0.41697 0.99078,0.46452 1.41016,0.10352l3.16211,-2.73437c0.41748,-0.36133 0.46289,-0.99268 0.10156,-1.41016c-0.18066,-0.20898 -0.42841,-0.32507 -0.68359,-0.34375zM55.79883,10.92383c-0.25446,-0.02698 -0.51978,0.0415 -0.73437,0.21484l-3.25195,2.62695c-0.42969,0.34717 -0.4956,0.97656 -0.14844,1.40625c0.34684,0.42905 0.97588,0.49787 1.40625,0.15039l3.25195,-2.62695c0.42969,-0.34717 0.4956,-0.97656 0.14844,-1.40625c-0.17383,-0.21484 -0.41742,-0.33826 -0.67187,-0.36523zM14.19922,21.81055h10.53125c-0.66992,0.69043 -1.33106,1.32959 -1.96094,1.92969l-0.09961,0.09961c-0.61987,-0.1499 -1.29028,-0.0098 -1.82031,0.41992l-7.71875,6.31055c-1.42004,1.16992 -1.63061,3.25977 -0.4707,4.67969l6.06055,7.40039c1.16003,1.41992 3.24988,1.63086 4.66992,0.4707l1.08008,-0.89062l11.76953,5.83008c1.38484,0.72781 3.18692,0.61168 4.49023,-0.46094c2.22851,-1.83243 1.97756,-5.42811 -0.75977,-6.83984c-0.10144,-0.04931 -9.20315,-4.47237 -8.62109,-4.18945c0.38001,-0.41992 0.56116,-0.96045 0.53125,-1.49023l0.10938,-0.07031c4.45996,-3.06983 10.56006,-7.26904 19.08008,-5.71875c0.84985,0.1499 1.6792,-0.23047 2.11914,-0.98047c0.44006,-0.73975 0.37036,-1.66016 -0.17969,-2.32031l-3.41992,-4.17969h6.21094c3.19995,0 5.79883,2.60059 5.79883,5.80078v27.75h-53.19922v-27.75c0,-3.2002 2.59888,-5.80078 5.79883,-5.80078zM22.75586,28.76758c0.25499,0.02374 0.49884,0.14355 0.67383,0.35352c0.3501,0.43018 0.29102,1.06006 -0.12891,1.41016l-4.74023,3.89844c-0.39697,0.3345 -1.0392,0.3165 -1.41016,-0.12891c-0.34985,-0.43018 -0.29114,-1.06006 0.12891,-1.41016l4.74023,-3.90039c0.21497,-0.17505 0.48134,-0.2464 0.73633,-0.22266zM25.52539,32.39844c0.25499,0.02509 0.49884,0.14648 0.67383,0.36133c0.3501,0.41992 0.29126,1.0498 -0.13867,1.41016l-4.74023,3.90039c-0.4192,0.349 -1.03413,0.29915 -1.40039,-0.14062c-0.34985,-0.41992 -0.28918,-1.04834 0.13086,-1.39844l4.74023,-3.91016c0.21497,-0.17505 0.47939,-0.24774 0.73438,-0.22266zM28.61914,39.30078c0.15002,0.33008 0.34033,0.64014 0.57031,0.91992c1.44006,1.75 4.04077,2.02002 5.80078,0.58008c0.02002,-0.02002 0.05029,-0.04053 0.07031,-0.07031l4.03906,1.83008c2.44579,1.26138 0.53142,5.02714 -1.94922,3.7207l-10.63086,-5.26172zM29.31055,57.36133h11.37891v2.62891c0,0.3501 -0.27905,0.63086 -0.62891,0.63086h-10.12109c-0.34998,0 -0.62891,-0.28076 -0.62891,-0.63086z"></path></g></g></svg>