<svg xmlns="http://www.w3.org/2000/svg" xmlns:xlink="http://www.w3.org/1999/xlink" viewBox="0,0,256,256" width="80px" height="80px" fill-rule="nonzero"><g fill="#0140ff" fill-rule="nonzero" stroke="none" stroke-width="1" stroke-linecap="butt" stroke-linejoin="miter" stroke-miterlimit="10" stroke-dasharray="" stroke-dashoffset="0" font-family="none" font-weight="none" font-size="none" text-anchor="none" style="mix-blend-mode: normal"><g transform="scale(4,4)"><path d="M56.77,15.074c-0.19986,-0.29964 -0.54543,-0.46866 -0.90466,-0.44246c-0.35923,0.0262 -0.67662,0.24356 -0.83089,0.56903c-0.15427,0.32547 -0.1216,0.70876 0.08555,1.00342c0.91508,1.34532 1.71142,2.76768 2.38,4.251l-9.324,3.827c-0.58179,-0.9074 -1.44531,-1.59878 -2.458,-1.968c0.82161,-0.90864 1.27822,-2.08899 1.282,-3.314v-4c0,-2.76142 -2.23858,-5 -5,-5c-2.76142,0 -5,2.23858 -5,5v4c0.00424,1.22849 0.46387,2.41176 1.29,3.321c-1.96989,0.71473 -3.28387,2.58347 -3.29,4.679v2.688l-2,0.82v-26.482c7.53751,0.27398 14.64748,3.57037 19.727,9.146c0.37169,0.40869 1.00431,0.43869 1.413,0.067c0.40869,-0.37169 0.43869,-1.00431 0.067,-1.413c-10.59821,-11.68357 -28.43417,-13.16388 -40.81348,-3.38735c-12.37931,9.77654 -15.07284,27.46998 -6.16352,40.48735c0.32181,0.42516 0.9206,0.52304 1.36103,0.22248c0.44043,-0.30056 0.56757,-0.89383 0.28897,-1.34848c-2.99064,-4.37155 -4.67084,-9.50616 -4.843,-14.8h27.549l3.8,3.8c0.39129,0.39047 1.02503,0.38979 1.4155,-0.0015c0.39047,-0.39129 0.38979,-1.02503 -0.0015,-1.4155l-3.028,-3.028l24.49,-10.05c2.73805,7.38025 2.22955,15.57392 -1.4,22.559c-0.42069,-1.7732 -1.77284,-3.17707 -3.529,-3.664c0.26566,-0.40189 0.45577,-0.84888 0.561,-1.319c1.54615,-0.36511 2.73213,-1.60674 3.026,-3.168c1.08775,-1.16096 1.38121,-2.85745 0.74663,-4.31633c-0.63458,-1.45888 -2.07572,-2.40087 -3.66663,-2.39667c-0.39668,-0.00047 -0.79104,0.06059 -1.169,0.181c-1.17269,-1.15651 -2.9294,-1.48673 -4.442,-0.835c-0.42788,-0.22681 -0.90472,-0.3456 -1.389,-0.346c-1.32145,-0.0001 -2.48734,0.86447 -2.871,2.129c-1.26453,0.38366 -2.1291,1.54955 -2.129,2.871c0.00047,0.52735 0.14129,1.04507 0.408,1.5c-0.57288,0.98115 -0.54061,2.20212 0.08329,3.15165c0.6239,0.94952 1.73177,1.46375 2.85971,1.32735c0.29643,0.25268 0.62829,0.46055 0.985,0.617c0.09094,0.20856 0.19897,0.40925 0.323,0.6c-0.9636,0.2688 -1.82416,0.82102 -2.47,1.585l-4.562,-4.562c-0.39238,-0.37897 -1.01608,-0.37355 -1.40182,0.01218c-0.38573,0.38573 -0.39115,1.00944 -0.01218,1.40182l12.853,12.847c-4.41679,4.12824 -10.05501,6.71012 -16.066,7.357v-13.837c0,-4.97056 -4.02944,-9 -9,-9c-4.97056,0 -9,4.02944 -9,9v9.635c-2.11553,-1.3388 -4.04174,-2.95558 -5.727,-4.807c-0.37169,-0.40869 -1.00431,-0.43869 -1.413,-0.067c-0.40869,0.37169 -0.43869,1.00431 -0.067,1.413c10.59821,11.68357 28.43417,13.16388 40.81348,3.38735c12.37931,-9.77654 15.07284,-27.46998 6.16352,-40.48735zM31,4.025v26.975h-3v-1c-0.00613,-2.09553 -1.32011,-3.96427 -3.29,-4.679c0.82613,-0.90924 1.28576,-2.09251 1.29,-3.321v-4c-0.00331,-2.76005 -2.23995,-4.99669 -5,-5h-4c-0.55228,0 -1,0.44772 -1,1v4c0,0.55228 0.44772,1 1,1h7v3c0,1.65685 -1.34315,3 -3,3c-1.65685,0 -3,-1.34315 -3,-3c0,-0.55228 -0.44772,-1 -1,-1c-0.55228,0 -1,0.44772 -1,1c0.00424,1.22849 0.46387,2.41176 1.29,3.321c-1.96989,0.71473 -3.28387,2.58347 -3.29,4.679v1h-9.975c0.54097,-14.66796 12.30704,-26.43403 26.975,-26.975zM19,27h4c1.65685,0 3,1.34315 3,3v1h-10v-1c0,-1.65685 1.34315,-3 3,-3zM23.829,17h-5.829v-2h3c1.27099,0.00155 2.40365,0.8023 2.829,2zM39,16h6v3c0,1.65685 -1.34315,3 -3,3c-1.65685,0 -3,-1.34315 -3,-3zM42,12c1.27099,0.00155 2.40365,0.8023 2.829,2h-5.658c0.42535,-1.1977 1.55801,-1.99845 2.829,-2zM37,27c0,-1.65685 1.34315,-3 3,-3h4c0.87821,-0.00117 1.71175,0.38704 2.276,1.06l-9.276,3.807zM48,39v-1.173c0.47816,-0.17139 0.90534,-0.46065 1.242,-0.841c0.50075,0.05346 1.00584,-0.04812 1.447,-0.291c0.4078,0.20093 0.85638,0.30529 1.311,0.305v2c0,1.10457 -0.89543,2 -2,2c-1.10457,0 -2,-0.89543 -2,-2zM45.337,37.934c-0.10759,0.0416 -0.22166,0.06394 -0.337,0.066c-0.55228,0 -1,-0.44772 -1,-1c-0.0001,-0.28669 0.12611,-0.55886 0.345,-0.744c0.21834,-0.18992 0.3437,-0.46512 0.3437,-0.7545c0,-0.28938 -0.12536,-0.56458 -0.3437,-0.7545c-0.21782,-0.18724 -0.34369,-0.45977 -0.345,-0.747c0,-0.55228 0.44772,-1 1,-1c0.55228,0 1,-0.44772 1,-1c0,-0.55228 0.44772,-1 1,-1c0.24627,0.00144 0.4831,0.09489 0.664,0.262c0.34268,0.3087 0.85204,0.34299 1.233,0.083c0.44795,-0.29149 0.99334,-0.39309 1.5162,-0.28244c0.52286,0.11065 0.98034,0.42448 1.2718,0.87244c0.28531,0.4506 0.87403,0.598 1.338,0.335c0.29647,-0.17385 0.63333,-0.26694 0.977,-0.27c1.10457,0 2,0.89543 2,2c-0.00088,0.5732 -0.25088,1.11771 -0.685,1.492c-0.1944,0.17108 -0.31485,0.41091 -0.336,0.669c-0.0495,0.65079 -0.41544,1.23578 -0.979,1.565v-2c-0.00037,-0.35708 -0.19111,-0.68687 -0.50044,-0.86526c-0.30933,-0.17838 -0.69031,-0.17828 -0.99956,0.00026c-0.37987,0.20641 -0.84802,0.15497 -1.174,-0.129c-0.19887,-0.18915 -0.46825,-0.28572 -0.742,-0.266c-0.27181,0.01774 -0.52462,0.14559 -0.7,0.354c-0.14517,0.17879 -0.39654,0.2299 -0.6,0.122c-0.24313,-0.12572 -0.52717,-0.14628 -0.78587,-0.0569c-0.2587,0.08938 -0.46946,0.2809 -0.58313,0.5299c-0.16332,0.35806 -0.52146,0.58704 -0.915,0.585c-0.55228,0 -1,0.44772 -1,1v0.937c-0.21394,-0.078 -0.44836,-0.07906 -0.663,-0.003zM48,43h4c1.65685,0 3,1.34315 3,3v1.942c-0.76491,1.09974 -1.60703,2.1437 -2.52,3.124l-6.865,-6.866c0.56174,-0.75318 1.44541,-1.1978 2.385,-1.2zM26,39c3.86417,0.00441 6.99559,3.13583 7,7v6.11c-0.88513,-0.90365 -1.99859,-1.55058 -3.222,-1.872c0.78321,-0.89742 1.21701,-2.04689 1.222,-3.238v-2c0,-0.55228 -0.44772,-1 -1,-1h-0.171c-1.54688,0.00458 -3.03125,-0.61013 -4.122,-1.707c-0.18749,-0.18755 -0.44181,-0.29294 -0.707,-0.293c-2.20914,0 -4,1.79086 -4,4v1c0.00499,1.19111 0.43879,2.34058 1.222,3.238c-1.22341,0.32142 -2.33687,0.96835 -3.222,1.872v-6.11c0.00441,-3.86417 3.13583,-6.99559 7,-7zM23,47v-1c-0.00002,-0.96496 0.68897,-1.79234 1.638,-1.967c1.21606,1.08321 2.74212,1.75633 4.362,1.924v1.043c0,1.65685 -1.34315,3 -3,3c-1.65685,0 -3,-1.34315 -3,-3zM19.021,56.8c0.10707,-2.6749 2.30197,-4.7909 4.979,-4.8h4c2.76005,0.00331 4.99669,2.23995 5,5v2.975c-0.333,0.011 -0.665,0.025 -1,0.025c-4.52108,-0.00441 -8.97402,-1.10229 -12.979,-3.2z"></path></g></g></svg>