<svg xmlns="http://www.w3.org/2000/svg" xmlns:xlink="http://www.w3.org/1999/xlink" viewBox="0,0,256,256" width="80px" height="80px" fill-rule="nonzero"><g fill="#0140ff" fill-rule="nonzero" stroke="none" stroke-width="1" stroke-linecap="butt" stroke-linejoin="miter" stroke-miterlimit="10" stroke-dasharray="" stroke-dashoffset="0" font-family="none" font-weight="none" font-size="none" text-anchor="none" style="mix-blend-mode: normal"><g transform="scale(4.65455,4.65455)"><path d="M21.16992,3.7793c-4.4363,-0.01302 -8.88858,1.6673 -12.31445,5.08008c-6.77655,6.76666 -6.77655,17.75482 0,24.52148c6.57056,6.57056 16.31982,6.18463 22.29492,1.95703l1.80273,1.80469l-1.60742,1.60742c-0.54974,0.54968 -0.54974,1.44055 0,1.99023l0.15234,0.15039c0.44562,0.44562 1.10614,0.51123 1.63672,0.23438c2.22723,3.55554 5.08118,6.66913 8.42578,9.17578c1.79913,1.34985 5.70819,1.33502 7.87695,-0.84766c1.88306,-1.87207 2.46326,-5.55652 0.85156,-7.88086c-2.50659,-3.3363 -5.61249,-6.1886 -9.15625,-8.41992c0.3269,-0.54126 0.28162,-1.24377 -0.18555,-1.71094l-0.15234,-0.15039c-0.54968,-0.54968 -1.44055,-0.54974 -1.99023,0l-1.67383,1.67383l-1.83594,-1.83594c5.04785,-6.96979 3.80554,-16.55585 -1.9082,-22.26953c-3.36063,-3.36072 -7.7805,-5.06706 -12.2168,-5.08008zM21.17383,7.6582c3.45258,0.00641 6.85486,1.28845 9.30273,3.73633c2.92163,2.7677 4.35809,6.85529 4.12305,10.37695c-0.15625,3.36719 -1.6001,6.55121 -3.77734,8.72852c-4.94977,5.21057 -13.77649,5.64734 -19.25586,0.16797c-5.26733,-5.27722 -5.26733,-13.81854 0,-19.0957c2.65106,-2.65106 6.15485,-3.92047 9.60742,-3.91406zM13.77344,16.41016c-0.62494,0 -1.1742,0.11035 -1.63281,0.32617c-0.47455,0.22259 -0.84149,0.53186 -1.0918,0.91992c-0.25031,0.38977 -0.37891,0.82703 -0.37891,1.30078c0,0.55774 0.16461,1.01746 0.48633,1.36523c0.29059,0.31494 0.64282,0.55499 1.04688,0.71289c0.35779,0.13947 0.82922,0.28577 1.40039,0.43359c0.40485,0.10669 0.71661,0.19531 0.9375,0.27344c0.17132,0.05963 0.31598,0.14111 0.42773,0.24023c0.06384,0.05627 0.08789,0.11133 0.08789,0.19531c0,0.22681 0.00085,0.75586 -1.375,0.75586c-0.65851,0 -1.28375,-0.1308 -1.86328,-0.38867c-0.34772,-0.14947 -0.74719,-0.07233 -0.98828,0.19141c-0.15118,0.16461 -0.23242,0.37061 -0.23242,0.5957c0,0.17975 0.05487,0.34912 0.1582,0.49609c0.10242,0.14868 0.23529,0.25757 0.39063,0.32227c0.81476,0.35193 1.69879,0.53125 2.62695,0.53125c0.57788,0 1.10193,-0.09808 1.55469,-0.29297c0.46954,-0.20239 0.84198,-0.49262 1.10742,-0.86133c0.2721,-0.38049 0.41016,-0.81366 0.41016,-1.28906c0,-0.57282 -0.15411,-1.04175 -0.45898,-1.39453c-0.28394,-0.32837 -0.63092,-0.57312 -1.02734,-0.72852c-0.35278,-0.13855 -0.81305,-0.27771 -1.375,-0.41211c-0.4082,-0.09412 -0.72858,-0.18085 -0.95117,-0.25977c-0.18396,-0.0647 -0.33637,-0.15387 -0.45312,-0.26562v-0.00195c-0.05042,-0.04785 -0.10937,-0.12384 -0.10937,-0.29102c0,-0.22089 0.09021,-0.37067 0.30274,-0.5c0.57788,-0.35028 1.7207,-0.30402 2.60351,0c0.42419,0.17389 0.73334,0.04834 0.95508,-0.21289c0.14111,-0.16547 0.21484,-0.36645 0.21484,-0.57812c0,-0.38892 -0.20801,-0.68591 -0.56836,-0.81445c-0.65765,-0.24445 -1.40039,-0.36914 -2.20508,-0.36914zM28.38867,16.41211c-0.75322,-0.00021 -1.50626,0.17679 -2.11523,0.53125c-0.61145,0.35614 -1.09009,0.85474 -1.42188,1.48047c-0.32672,0.61487 -0.50049,1.32617 -0.51562,2.13086c0.01514,0.7887 0.1889,1.49927 0.51562,2.11328c0.33179,0.62659 0.81042,1.12439 1.42188,1.48047c0.6073,0.35364 1.31812,0.5332 2.11523,0.5332c0.79712,0 1.50738,-0.17957 2.11133,-0.5332c0.60809,-0.35693 1.08673,-0.85529 1.42188,-1.48438c0.33014,-0.61987 0.5044,-1.33069 0.51953,-2.12695c-0.01514,-0.77863 -0.18939,-1.48755 -0.51953,-2.10742c-0.33514,-0.62915 -0.81378,-1.12933 -1.42187,-1.48633c-0.60477,-0.35361 -1.35811,-0.53104 -2.11133,-0.53125zM18.73828,16.51367c-0.24945,0 -0.4715,0.09393 -0.63867,0.26953c-0.16797,0.17218 -0.25586,0.39203 -0.25586,0.63477v6.26563c0,0.24609 0.0918,0.46649 0.25977,0.63281c0.16968,0.17133 0.38867,0.26172 0.63477,0.26172h4.13867c0.23523,0 0.44696,-0.0846 0.61328,-0.24414c0.17053,-0.16467 0.26172,-0.37805 0.26172,-0.61914c0,-0.23767 -0.08874,-0.45197 -0.25586,-0.61914c-0.16632,-0.16632 -0.38055,-0.25391 -0.61914,-0.25391h-3.23437v-1.43164h2.86328c0.23267,0 0.44446,-0.08374 0.61328,-0.24414c0.17047,-0.16382 0.25977,-0.37921 0.25977,-0.62109c0,-0.23773 -0.08759,-0.45087 -0.25391,-0.61719c-0.16718,-0.16711 -0.38147,-0.25586 -0.61914,-0.25586h-2.86328v-1.42187h3.23438c0.23523,0 0.44665,-0.08234 0.61133,-0.24023c0.17218,-0.16382 0.26367,-0.38031 0.26367,-0.62305c0,-0.23938 -0.08929,-0.45227 -0.25391,-0.61523c-0.16632,-0.16797 -0.38171,-0.25781 -0.62109,-0.25781zM28.38867,18.14844c0.46869,0 0.87585,0.10364 1.21094,0.30859c0.33936,0.20746 0.58954,0.4798 0.76758,0.83594c0.18231,0.36456 0.27539,0.78577 0.27539,1.25195c0,0.46698 -0.09308,0.8894 -0.27539,1.25391c-0.17804,0.35614 -0.42822,0.62848 -0.76758,0.83594c-0.33508,0.20496 -0.74225,0.30859 -1.21094,0.30859c-0.48126,0 -0.87891,-0.10004 -1.21484,-0.30664c-0.336,-0.20752 -0.58563,-0.48175 -0.76367,-0.83789c-0.18231,-0.3645 -0.27539,-0.78693 -0.27539,-1.25391c0,-0.46619 0.09308,-0.88739 0.27539,-1.25195c0.17804,-0.35614 0.42767,-0.63043 0.76367,-0.83789c0.33594,-0.2066 0.73358,-0.30664 1.21484,-0.30664zM46.16602,44.34961c0.41666,-0.04193 0.80948,0.0842 1.08203,0.39063c0.23083,0.25079 0.46161,0.50189 0.68945,0.75391c0.53686,0.60712 0.43903,1.61371 -0.20508,2.25781c-1.28522,1.28558 -2.35626,0.12439 -3.01562,-0.48047c-0.60248,-0.54565 -0.4978,-1.57458 0.22852,-2.30078c0.36371,-0.36881 0.80404,-0.57916 1.2207,-0.62109z"></path></g></g></svg>