<svg xmlns="http://www.w3.org/2000/svg" xmlns:xlink="http://www.w3.org/1999/xlink" viewBox="0,0,256,256" width="80px" height="80px" fill-rule="nonzero"><g fill="#0140ff" fill-rule="nonzero" stroke="none" stroke-width="1" stroke-linecap="butt" stroke-linejoin="miter" stroke-miterlimit="10" stroke-dasharray="" stroke-dashoffset="0" font-family="none" font-weight="none" font-size="none" text-anchor="none" style="mix-blend-mode: normal"><g transform="scale(4,4)"><path d="M8,8c-2.21,0 -4,1.79 -4,4v3.05078l56,-0.04101v-3.00977c0,-2.21 -1.79,-4 -4,-4zM60,17.00977l-56,0.04102v34.94922c0,2.21 1.79,4 4,4h48c2.21,0 4,-1.79 4,-4zM14,22h36v18h-36zM28.53906,27v8l6.92188,-4zM14,44h9c0.55,0 1,0.45 1,1c0,0.55 -0.45,1 -1,1h-9c-0.55,0 -1,-0.45 -1,-1c0,-0.55 0.45,-1 1,-1zM27,44h23c0.55,0 1,0.45 1,1c0,0.55 -0.45,1 -1,1h-23c-0.55,0 -1,-0.45 -1,-1c0,-0.55 0.45,-1 1,-1zM14,49h18c0.55,0 1,0.45 1,1c0,0.55 -0.45,1 -1,1h-18c-0.55,0 -1,-0.45 -1,-1c0,-0.55 0.45,-1 1,-1zM36,49h14c0.55,0 1,0.45 1,1c0,0.55 -0.45,1 -1,1h-14c-0.55,0 -1,-0.45 -1,-1c0,-0.55 0.45,-1 1,-1z"></path></g></g></svg>