<svg xmlns="http://www.w3.org/2000/svg" xmlns:xlink="http://www.w3.org/1999/xlink" width="250" zoomAndPan="magnify" viewBox="0 0 187.5 73.499998" height="98" preserveAspectRatio="xMidYMid meet" version="1.0"><defs><g/><clipPath id="aa5c0759b4"><path d="M 5 3.285156 L 79 3.285156 L 79 68.269531 L 5 68.269531 Z M 5 3.285156 " clip-rule="nonzero"/></clipPath></defs><g clip-path="url(#aa5c0759b4)"><path fill="#233dff" d="M 58.058594 3.535156 L 53.277344 11.847656 L 18.085938 11.847656 L 22.867188 3.527344 Z M 65.421875 12.953125 L 60.644531 21.28125 L 56.234375 13.601562 L 61.011719 5.261719 Z M 72.046875 24.492188 L 67.265625 32.835938 L 62.621094 24.71875 L 67.398438 16.390625 Z M 67.539062 55.269531 L 62.941406 47.25 L 67.265625 39.6875 L 71.859375 47.722656 Z M 61.011719 66.652344 L 56.417969 58.640625 L 60.972656 50.695312 L 65.566406 58.699219 Z M 49.789062 47.082031 L 54.34375 39.140625 L 59.007812 47.25 L 54.445312 55.203125 Z M 47.820312 43.644531 L 43.414062 35.949219 L 47.972656 28.007812 L 52.382812 35.703125 Z M 49.929688 24.570312 L 54.257812 17.003906 L 58.664062 24.71875 L 54.335938 32.285156 Z M 51.296875 15.285156 L 47.007812 22.769531 L 11.84375 22.769531 L 16.132812 15.292969 Z M 45.039062 26.207031 L 40.460938 34.230469 L 5.269531 34.230469 L 9.875 26.207031 Z M 27.261719 37.667969 L 44.851562 68.363281 L 35.636719 68.363281 L 18.046875 37.667969 Z M 48.785156 68.363281 L 31.199219 37.667969 L 40.460938 37.667969 L 46.097656 47.503906 C 46.171875 47.894531 46.359375 48.214844 46.652344 48.476562 L 52.71875 59.050781 C 52.789062 59.4375 52.972656 59.757812 53.269531 60.015625 L 58.046875 68.371094 Z M 60.972656 43.8125 L 56.320312 35.703125 L 60.648438 28.136719 L 65.296875 36.253906 Z M 5.269531 37.667969 L 14.109375 37.667969 L 31.699219 68.363281 L 22.871094 68.363281 Z M 78.609375 35.949219 L 73.832031 44.285156 L 69.246094 36.265625 L 74.023438 27.933594 Z M 78.609375 35.949219 " fill-opacity="1" fill-rule="nonzero"/></g><g fill="#ffffff" fill-opacity="1"><g transform="translate(105.426151, 38.835992)"><g><path d="M 4.59375 0.15625 C 3.113281 0.15625 2.046875 -0.207031 1.390625 -0.9375 C 0.734375 -1.675781 0.40625 -2.863281 0.40625 -4.5 L 0.40625 -6.09375 L 3.609375 -6.09375 L 3.609375 -4.0625 C 3.609375 -3.25 3.867188 -2.84375 4.390625 -2.84375 C 4.679688 -2.84375 4.882812 -2.925781 5 -3.09375 C 5.113281 -3.269531 5.171875 -3.5625 5.171875 -3.96875 C 5.171875 -4.5 5.101562 -4.9375 4.96875 -5.28125 C 4.84375 -5.632812 4.679688 -5.925781 4.484375 -6.15625 C 4.296875 -6.394531 3.945312 -6.765625 3.4375 -7.265625 L 2.03125 -8.65625 C 0.945312 -9.726562 0.40625 -10.910156 0.40625 -12.203125 C 0.40625 -13.585938 0.722656 -14.644531 1.359375 -15.375 C 1.992188 -16.101562 2.925781 -16.46875 4.15625 -16.46875 C 5.625 -16.46875 6.679688 -16.078125 7.328125 -15.296875 C 7.972656 -14.523438 8.296875 -13.304688 8.296875 -11.640625 L 4.984375 -11.640625 L 4.953125 -12.765625 C 4.953125 -12.984375 4.890625 -13.15625 4.765625 -13.28125 C 4.648438 -13.40625 4.488281 -13.46875 4.28125 -13.46875 C 4.019531 -13.46875 3.828125 -13.394531 3.703125 -13.25 C 3.578125 -13.113281 3.515625 -12.925781 3.515625 -12.6875 C 3.515625 -12.15625 3.816406 -11.601562 4.421875 -11.03125 L 6.328125 -9.21875 C 6.765625 -8.78125 7.128906 -8.367188 7.421875 -7.984375 C 7.710938 -7.597656 7.945312 -7.140625 8.125 -6.609375 C 8.300781 -6.085938 8.390625 -5.46875 8.390625 -4.75 C 8.390625 -3.144531 8.09375 -1.925781 7.5 -1.09375 C 6.914062 -0.257812 5.945312 0.15625 4.59375 0.15625 Z M 4.59375 0.15625 "/></g></g></g><g fill="#ffffff" fill-opacity="1"><g transform="translate(115.188478, 38.835992)"><g><path d="M 0.671875 -16.421875 L 4.078125 -16.421875 L 4.078125 -12.546875 C 4.429688 -13.554688 5.113281 -14.0625 6.125 -14.0625 C 7.0625 -14.0625 7.769531 -13.765625 8.25 -13.171875 C 8.726562 -12.578125 8.96875 -11.757812 8.96875 -10.71875 L 8.96875 0 L 5.640625 0 L 5.640625 -10.5 C 5.640625 -10.8125 5.566406 -11.0625 5.421875 -11.25 C 5.285156 -11.4375 5.085938 -11.53125 4.828125 -11.53125 C 4.597656 -11.53125 4.414062 -11.429688 4.28125 -11.234375 C 4.144531 -11.035156 4.078125 -10.800781 4.078125 -10.53125 L 4.078125 0 L 0.671875 0 Z M 0.671875 -16.421875 "/></g></g></g><g fill="#ffffff" fill-opacity="1"><g transform="translate(125.786476, 38.835992)"><g><path d="M 0.640625 -14.84375 L 0.640625 -17.15625 L 3.96875 -17.15625 L 3.96875 -14.84375 Z M 0.640625 0 L 0.640625 -13.90625 L 3.96875 -13.90625 L 3.96875 0 Z M 0.640625 0 "/></g></g></g><g fill="#ffffff" fill-opacity="1"><g transform="translate(131.408446, 38.835992)"><g><path d="M 4.5625 0.15625 C 3.125 0.15625 2.09375 -0.234375 1.46875 -1.015625 C 0.851562 -1.804688 0.546875 -2.984375 0.546875 -4.546875 L 0.546875 -10.125 C 0.546875 -11.40625 0.910156 -12.378906 1.640625 -13.046875 C 2.378906 -13.722656 3.410156 -14.0625 4.734375 -14.0625 C 7.398438 -14.0625 8.734375 -12.75 8.734375 -10.125 L 8.734375 -9.125 C 8.734375 -8.101562 8.722656 -7.28125 8.703125 -6.65625 L 3.875 -6.65625 L 3.875 -3.953125 C 3.875 -3.472656 3.925781 -3.09375 4.03125 -2.8125 C 4.132812 -2.539062 4.347656 -2.40625 4.671875 -2.40625 C 4.921875 -2.40625 5.097656 -2.484375 5.203125 -2.640625 C 5.316406 -2.796875 5.382812 -2.96875 5.40625 -3.15625 C 5.425781 -3.351562 5.4375 -3.644531 5.4375 -4.03125 L 5.4375 -5.375 L 8.734375 -5.375 L 8.734375 -4.578125 C 8.734375 -2.953125 8.421875 -1.753906 7.796875 -0.984375 C 7.171875 -0.222656 6.09375 0.15625 4.5625 0.15625 Z M 5.4375 -8.296875 L 5.4375 -10.09375 C 5.4375 -11.09375 5.1875 -11.59375 4.6875 -11.59375 C 4.132812 -11.59375 3.859375 -11.09375 3.859375 -10.09375 L 3.859375 -8.296875 Z M 5.4375 -8.296875 "/></g></g></g><g fill="#ffffff" fill-opacity="1"><g transform="translate(141.683572, 38.835992)"><g><path d="M 0.671875 0 L 0.671875 -16.421875 L 4.046875 -16.421875 L 4.046875 0 Z M 0.671875 0 "/></g></g></g><g fill="#ffffff" fill-opacity="1"><g transform="translate(147.400504, 38.835992)"><g><path d="M 3.1875 0.15625 C 2.113281 0.15625 1.375 -0.203125 0.96875 -0.921875 C 0.570312 -1.640625 0.375 -2.660156 0.375 -3.984375 C 0.375 -5.078125 0.515625 -5.914062 0.796875 -6.5 C 1.085938 -7.082031 1.484375 -7.507812 1.984375 -7.78125 C 2.492188 -8.050781 3.269531 -8.351562 4.3125 -8.6875 L 5.21875 -8.984375 L 5.21875 -10.40625 C 5.21875 -10.78125 5.144531 -11.0625 5 -11.25 C 4.851562 -11.445312 4.679688 -11.546875 4.484375 -11.546875 C 4.304688 -11.546875 4.148438 -11.460938 4.015625 -11.296875 C 3.878906 -11.140625 3.8125 -10.921875 3.8125 -10.640625 L 3.8125 -9.796875 L 0.59375 -9.796875 L 0.59375 -10.265625 C 0.59375 -11.628906 0.910156 -12.601562 1.546875 -13.1875 C 2.191406 -13.769531 3.234375 -14.0625 4.671875 -14.0625 C 5.828125 -14.0625 6.765625 -13.757812 7.484375 -13.15625 C 8.203125 -12.550781 8.5625 -11.703125 8.5625 -10.609375 L 8.5625 0 L 5.265625 0 L 5.265625 -1.65625 C 5.097656 -1.082031 4.832031 -0.632812 4.46875 -0.3125 C 4.113281 0 3.6875 0.15625 3.1875 0.15625 Z M 4.5 -2.4375 C 4.757812 -2.4375 4.941406 -2.539062 5.046875 -2.75 C 5.148438 -2.957031 5.203125 -3.210938 5.203125 -3.515625 L 5.203125 -7.390625 C 4.710938 -7.203125 4.347656 -6.960938 4.109375 -6.671875 C 3.878906 -6.378906 3.765625 -5.972656 3.765625 -5.453125 L 3.765625 -3.671875 C 3.765625 -2.847656 4.007812 -2.4375 4.5 -2.4375 Z M 4.5 -2.4375 "/></g></g></g><g fill="#f4f2f2" fill-opacity="1"><g transform="translate(93.040194, 47.872253)"><g><path d="M 5.625 0 L 5.109375 -1.46875 L 2.09375 -1.46875 L 1.578125 0 L 0.359375 0 L 2.921875 -7.203125 L 4.296875 -7.203125 L 6.875 0 Z M 2.421875 -2.390625 L 4.796875 -2.390625 L 3.609375 -5.765625 Z M 2.421875 -2.390625 "/></g></g></g><g fill="#f4f2f2" fill-opacity="1"><g transform="translate(100.244372, 47.872253)"><g><path d="M 1.953125 -5.703125 L 1.953125 -4.796875 C 2.335938 -5.460938 2.945312 -5.796875 3.78125 -5.796875 C 4.414062 -5.796875 4.941406 -5.582031 5.359375 -5.15625 C 5.773438 -4.726562 5.984375 -4.128906 5.984375 -3.359375 L 5.984375 0 L 4.8125 0 L 4.8125 -3.1875 C 4.8125 -3.695312 4.6875 -4.085938 4.4375 -4.359375 C 4.1875 -4.628906 3.835938 -4.765625 3.390625 -4.765625 C 2.953125 -4.765625 2.601562 -4.628906 2.34375 -4.359375 C 2.082031 -4.085938 1.953125 -3.695312 1.953125 -3.1875 L 1.953125 0 L 0.78125 0 L 0.78125 -5.703125 Z M 1.953125 -5.703125 "/></g></g></g><g fill="#f4f2f2" fill-opacity="1"><g transform="translate(106.95242, 47.872253)"><g><path d="M 4.53125 -1.453125 C 4.875 -1.796875 5.046875 -2.257812 5.046875 -2.84375 C 5.046875 -3.4375 4.875 -3.90625 4.53125 -4.25 C 4.195312 -4.59375 3.789062 -4.765625 3.3125 -4.765625 C 2.84375 -4.765625 2.4375 -4.59375 2.09375 -4.25 C 1.757812 -3.914062 1.59375 -3.457031 1.59375 -2.875 C 1.59375 -2.289062 1.757812 -1.820312 2.09375 -1.46875 C 2.4375 -1.113281 2.84375 -0.9375 3.3125 -0.9375 C 3.789062 -0.9375 4.195312 -1.109375 4.53125 -1.453125 Z M 3.078125 0.09375 C 2.316406 0.09375 1.675781 -0.179688 1.15625 -0.734375 C 0.632812 -1.296875 0.375 -2.007812 0.375 -2.875 C 0.375 -3.738281 0.628906 -4.441406 1.140625 -4.984375 C 1.660156 -5.523438 2.304688 -5.796875 3.078125 -5.796875 C 3.523438 -5.796875 3.914062 -5.691406 4.25 -5.484375 C 4.59375 -5.285156 4.859375 -5.019531 5.046875 -4.6875 L 5.046875 -5.703125 L 6.234375 -5.703125 L 6.234375 0 L 5.046875 0 L 5.046875 -1.0625 C 4.859375 -0.707031 4.59375 -0.425781 4.25 -0.21875 C 3.914062 -0.0078125 3.523438 0.09375 3.078125 0.09375 Z M 3.078125 0.09375 "/></g></g></g><g fill="#f4f2f2" fill-opacity="1"><g transform="translate(113.960216, 47.872253)"><g><path d="M 0.78125 0 L 0.78125 -7.65625 L 1.953125 -7.65625 L 1.953125 0 Z M 0.78125 0 "/></g></g></g><g fill="#f4f2f2" fill-opacity="1"><g transform="translate(116.688913, 47.872253)"><g><path d="M 2.34375 -0.09375 L 0.109375 -5.703125 L 1.421875 -5.703125 L 3.015625 -1.359375 L 4.6875 -5.703125 L 5.90625 -5.703125 L 2.40625 2.671875 L 1.1875 2.671875 Z M 2.34375 -0.09375 "/></g></g></g><g fill="#f4f2f2" fill-opacity="1"><g transform="translate(122.704452, 47.872253)"><g><path d="M 3.53125 -4.734375 L 2.15625 -4.734375 L 2.15625 -1.578125 C 2.15625 -1.367188 2.203125 -1.21875 2.296875 -1.125 C 2.398438 -1.03125 2.570312 -0.984375 2.8125 -0.984375 L 3.53125 -0.984375 L 3.53125 0 L 2.609375 0 C 1.515625 0 0.96875 -0.523438 0.96875 -1.578125 L 0.96875 -4.734375 L 0.296875 -4.734375 L 0.296875 -5.703125 L 0.96875 -5.703125 L 0.96875 -7.109375 L 2.15625 -7.109375 L 2.15625 -5.703125 L 3.53125 -5.703125 Z M 3.53125 -4.734375 "/></g></g></g><g fill="#f4f2f2" fill-opacity="1"><g transform="translate(126.549437, 47.872253)"><g><path d="M 2.125 -7.203125 C 2.125 -6.992188 2.050781 -6.816406 1.90625 -6.671875 C 1.757812 -6.523438 1.582031 -6.453125 1.375 -6.453125 C 1.164062 -6.453125 0.988281 -6.523438 0.84375 -6.671875 C 0.695312 -6.816406 0.625 -6.992188 0.625 -7.203125 C 0.625 -7.421875 0.695312 -7.601562 0.84375 -7.75 C 0.988281 -7.894531 1.164062 -7.96875 1.375 -7.96875 C 1.582031 -7.96875 1.757812 -7.894531 1.90625 -7.75 C 2.050781 -7.601562 2.125 -7.421875 2.125 -7.203125 Z M 0.78125 0 L 0.78125 -5.703125 L 1.953125 -5.703125 L 1.953125 0 Z M 0.78125 0 "/></g></g></g><g fill="#f4f2f2" fill-opacity="1"><g transform="translate(129.278135, 47.872253)"><g><path d="M 3.171875 0.09375 C 2.347656 0.09375 1.675781 -0.171875 1.15625 -0.703125 C 0.632812 -1.242188 0.375 -1.957031 0.375 -2.84375 C 0.375 -3.726562 0.632812 -4.441406 1.15625 -4.984375 C 1.675781 -5.523438 2.347656 -5.796875 3.171875 -5.796875 C 3.859375 -5.796875 4.425781 -5.628906 4.875 -5.296875 C 5.332031 -4.972656 5.640625 -4.507812 5.796875 -3.90625 L 4.53125 -3.90625 C 4.3125 -4.5 3.859375 -4.796875 3.171875 -4.796875 C 2.691406 -4.796875 2.304688 -4.625 2.015625 -4.28125 C 1.734375 -3.945312 1.59375 -3.472656 1.59375 -2.859375 C 1.59375 -2.242188 1.734375 -1.765625 2.015625 -1.421875 C 2.304688 -1.078125 2.691406 -0.90625 3.171875 -0.90625 C 3.859375 -0.90625 4.3125 -1.203125 4.53125 -1.796875 L 5.796875 -1.796875 C 5.628906 -1.222656 5.316406 -0.765625 4.859375 -0.421875 C 4.410156 -0.078125 3.847656 0.09375 3.171875 0.09375 Z M 3.171875 0.09375 "/></g></g></g><g fill="#f4f2f2" fill-opacity="1"><g transform="translate(135.47972, 47.872253)"><g><path d="M 4.53125 -1.453125 C 4.875 -1.796875 5.046875 -2.257812 5.046875 -2.84375 C 5.046875 -3.4375 4.875 -3.90625 4.53125 -4.25 C 4.195312 -4.59375 3.789062 -4.765625 3.3125 -4.765625 C 2.84375 -4.765625 2.4375 -4.59375 2.09375 -4.25 C 1.757812 -3.914062 1.59375 -3.457031 1.59375 -2.875 C 1.59375 -2.289062 1.757812 -1.820312 2.09375 -1.46875 C 2.4375 -1.113281 2.84375 -0.9375 3.3125 -0.9375 C 3.789062 -0.9375 4.195312 -1.109375 4.53125 -1.453125 Z M 3.078125 0.09375 C 2.316406 0.09375 1.675781 -0.179688 1.15625 -0.734375 C 0.632812 -1.296875 0.375 -2.007812 0.375 -2.875 C 0.375 -3.738281 0.628906 -4.441406 1.140625 -4.984375 C 1.660156 -5.523438 2.304688 -5.796875 3.078125 -5.796875 C 3.523438 -5.796875 3.914062 -5.691406 4.25 -5.484375 C 4.59375 -5.285156 4.859375 -5.019531 5.046875 -4.6875 L 5.046875 -5.703125 L 6.234375 -5.703125 L 6.234375 0 L 5.046875 0 L 5.046875 -1.0625 C 4.859375 -0.707031 4.59375 -0.425781 4.25 -0.21875 C 3.914062 -0.0078125 3.523438 0.09375 3.078125 0.09375 Z M 3.078125 0.09375 "/></g></g></g><g fill="#f4f2f2" fill-opacity="1"><g transform="translate(142.487515, 47.872253)"><g><path d="M 0.78125 0 L 0.78125 -7.65625 L 1.953125 -7.65625 L 1.953125 0 Z M 0.78125 0 "/></g></g></g><g fill="#f4f2f2" fill-opacity="1"><g transform="translate(145.216213, 47.872253)"><g><path d="M 4.0625 0.0625 C 3.03125 0.0625 2.15625 -0.28125 1.4375 -0.96875 C 0.726562 -1.65625 0.375 -2.53125 0.375 -3.59375 C 0.375 -4.664062 0.726562 -5.546875 1.4375 -6.234375 C 2.15625 -6.929688 3.03125 -7.28125 4.0625 -7.28125 C 4.820312 -7.28125 5.5 -7.09375 6.09375 -6.71875 C 6.695312 -6.34375 7.128906 -5.8125 7.390625 -5.125 L 5.984375 -5.125 C 5.597656 -5.84375 4.957031 -6.203125 4.0625 -6.203125 C 3.332031 -6.203125 2.738281 -5.960938 2.28125 -5.484375 C 1.820312 -5.015625 1.59375 -4.390625 1.59375 -3.609375 C 1.59375 -2.828125 1.820312 -2.195312 2.28125 -1.71875 C 2.738281 -1.238281 3.332031 -1 4.0625 -1 C 4.957031 -1 5.597656 -1.363281 5.984375 -2.09375 L 7.390625 -2.09375 C 7.128906 -1.40625 6.695312 -0.875 6.09375 -0.5 C 5.5 -0.125 4.820312 0.0625 4.0625 0.0625 Z M 4.0625 0.0625 "/></g></g></g><g fill="#f4f2f2" fill-opacity="1"><g transform="translate(153.205923, 47.872253)"><g><path d="M 4.765625 -5.703125 L 5.9375 -5.703125 L 5.9375 0 L 4.765625 0 L 4.765625 -0.90625 C 4.390625 -0.25 3.78125 0.078125 2.9375 0.078125 C 2.289062 0.078125 1.757812 -0.128906 1.34375 -0.546875 C 0.925781 -0.972656 0.71875 -1.570312 0.71875 -2.34375 L 0.71875 -5.703125 L 1.890625 -5.703125 L 1.890625 -2.515625 C 1.890625 -2.003906 2.015625 -1.613281 2.265625 -1.34375 C 2.523438 -1.070312 2.875 -0.9375 3.3125 -0.9375 C 3.757812 -0.9375 4.113281 -1.070312 4.375 -1.34375 C 4.632812 -1.613281 4.765625 -2.003906 4.765625 -2.515625 Z M 4.765625 -5.703125 "/></g></g></g><g fill="#f4f2f2" fill-opacity="1"><g transform="translate(159.913972, 47.872253)"><g><path d="M 4.90625 -1.46875 C 5.25 -1.820312 5.421875 -2.289062 5.421875 -2.875 C 5.421875 -3.457031 5.25 -3.914062 4.90625 -4.25 C 4.5625 -4.59375 4.15625 -4.765625 3.6875 -4.765625 C 3.21875 -4.765625 2.8125 -4.59375 2.46875 -4.25 C 2.125 -3.90625 1.953125 -3.4375 1.953125 -2.84375 C 1.953125 -2.257812 2.125 -1.796875 2.46875 -1.453125 C 2.8125 -1.109375 3.21875 -0.9375 3.6875 -0.9375 C 4.15625 -0.9375 4.5625 -1.113281 4.90625 -1.46875 Z M 3.9375 -5.796875 C 4.707031 -5.796875 5.347656 -5.523438 5.859375 -4.984375 C 6.367188 -4.441406 6.625 -3.738281 6.625 -2.875 C 6.625 -2.007812 6.363281 -1.296875 5.84375 -0.734375 C 5.332031 -0.179688 4.695312 0.09375 3.9375 0.09375 C 3.488281 0.09375 3.09375 -0.0078125 2.75 -0.21875 C 2.414062 -0.425781 2.148438 -0.707031 1.953125 -1.0625 L 1.953125 0 L 0.78125 0 L 0.78125 -7.65625 L 1.953125 -7.65625 L 1.953125 -4.6875 C 2.148438 -5.019531 2.414062 -5.285156 2.75 -5.484375 C 3.09375 -5.691406 3.488281 -5.796875 3.9375 -5.796875 Z M 3.9375 -5.796875 "/></g></g></g><g fill="#f4f2f2" fill-opacity="1"><g transform="translate(166.921768, 47.872253)"><g><path d="M 3.171875 0.09375 C 2.347656 0.09375 1.675781 -0.171875 1.15625 -0.703125 C 0.632812 -1.242188 0.375 -1.957031 0.375 -2.84375 C 0.375 -3.738281 0.632812 -4.453125 1.15625 -4.984375 C 1.6875 -5.523438 2.367188 -5.796875 3.203125 -5.796875 C 4.035156 -5.796875 4.707031 -5.535156 5.21875 -5.015625 C 5.738281 -4.503906 6 -3.835938 6 -3.015625 C 6 -2.804688 5.984375 -2.617188 5.953125 -2.453125 L 1.59375 -2.453125 C 1.625 -1.972656 1.785156 -1.59375 2.078125 -1.3125 C 2.367188 -1.039062 2.734375 -0.90625 3.171875 -0.90625 C 3.816406 -0.90625 4.269531 -1.171875 4.53125 -1.703125 L 5.796875 -1.703125 C 5.628906 -1.171875 5.316406 -0.738281 4.859375 -0.40625 C 4.398438 -0.0703125 3.835938 0.09375 3.171875 0.09375 Z M 4.765625 -3.265625 C 4.765625 -3.734375 4.609375 -4.101562 4.296875 -4.375 C 3.992188 -4.65625 3.625 -4.796875 3.1875 -4.796875 C 2.757812 -4.796875 2.398438 -4.65625 2.109375 -4.375 C 1.816406 -4.101562 1.648438 -3.734375 1.609375 -3.265625 Z M 4.765625 -3.265625 "/></g></g></g></svg>