<svg xmlns="http://www.w3.org/2000/svg" xmlns:xlink="http://www.w3.org/1999/xlink" width="250" zoomAndPan="magnify" viewBox="0 0 187.5 73.499998" height="98" preserveAspectRatio="xMidYMid meet" version="1.0"><defs><g/><clipPath id="89052a97b5"><path d="M 5 3.285156 L 79 3.285156 L 79 68.269531 L 5 68.269531 Z M 5 3.285156 " clip-rule="nonzero"/></clipPath></defs><g clip-path="url(#89052a97b5)"><path fill="#233dff" d="M 58.058594 3.535156 L 53.277344 11.847656 L 18.085938 11.847656 L 22.867188 3.527344 Z M 65.421875 12.953125 L 60.644531 21.28125 L 56.234375 13.601562 L 61.011719 5.261719 Z M 72.046875 24.492188 L 67.265625 32.835938 L 62.621094 24.71875 L 67.398438 16.390625 Z M 67.539062 55.269531 L 62.941406 47.25 L 67.265625 39.6875 L 71.859375 47.722656 Z M 61.011719 66.652344 L 56.417969 58.640625 L 60.972656 50.695312 L 65.566406 58.699219 Z M 49.789062 47.082031 L 54.34375 39.140625 L 59.007812 47.25 L 54.445312 55.203125 Z M 47.820312 43.644531 L 43.414062 35.949219 L 47.972656 28.007812 L 52.382812 35.703125 Z M 49.929688 24.570312 L 54.257812 17.003906 L 58.664062 24.71875 L 54.335938 32.285156 Z M 51.296875 15.285156 L 47.007812 22.769531 L 11.84375 22.769531 L 16.132812 15.292969 Z M 45.039062 26.207031 L 40.460938 34.230469 L 5.269531 34.230469 L 9.875 26.207031 Z M 27.261719 37.667969 L 44.851562 68.363281 L 35.636719 68.363281 L 18.046875 37.667969 Z M 48.785156 68.363281 L 31.199219 37.667969 L 40.460938 37.667969 L 46.097656 47.503906 C 46.171875 47.894531 46.359375 48.214844 46.652344 48.476562 L 52.71875 59.050781 C 52.789062 59.4375 52.972656 59.757812 53.269531 60.015625 L 58.046875 68.371094 Z M 60.972656 43.8125 L 56.320312 35.703125 L 60.648438 28.136719 L 65.296875 36.253906 Z M 5.269531 37.667969 L 14.109375 37.667969 L 31.699219 68.363281 L 22.871094 68.363281 Z M 78.609375 35.949219 L 73.832031 44.285156 L 69.246094 36.265625 L 74.023438 27.933594 Z M 78.609375 35.949219 " fill-opacity="1" fill-rule="nonzero"/></g><g fill="#ffffff" fill-opacity="1"><g transform="translate(112.325939, 38.009181)"><g><path d="M 3.375 0.109375 C 2.289062 0.109375 1.503906 -0.15625 1.015625 -0.6875 C 0.535156 -1.226562 0.296875 -2.101562 0.296875 -3.3125 L 0.296875 -4.484375 L 2.65625 -4.484375 L 2.65625 -2.984375 C 2.65625 -2.390625 2.84375 -2.09375 3.21875 -2.09375 C 3.4375 -2.09375 3.585938 -2.15625 3.671875 -2.28125 C 3.753906 -2.40625 3.796875 -2.617188 3.796875 -2.921875 C 3.796875 -3.304688 3.75 -3.625 3.65625 -3.875 C 3.5625 -4.132812 3.441406 -4.347656 3.296875 -4.515625 C 3.148438 -4.691406 2.894531 -4.960938 2.53125 -5.328125 L 1.5 -6.359375 C 0.695312 -7.140625 0.296875 -8.003906 0.296875 -8.953125 C 0.296875 -9.984375 0.53125 -10.765625 1 -11.296875 C 1.46875 -11.828125 2.15625 -12.09375 3.0625 -12.09375 C 4.132812 -12.09375 4.90625 -11.804688 5.375 -11.234375 C 5.851562 -10.660156 6.09375 -9.765625 6.09375 -8.546875 L 3.65625 -8.546875 L 3.640625 -9.375 C 3.640625 -9.53125 3.59375 -9.65625 3.5 -9.75 C 3.414062 -9.84375 3.296875 -9.890625 3.140625 -9.890625 C 2.953125 -9.890625 2.8125 -9.835938 2.71875 -9.734375 C 2.625 -9.628906 2.578125 -9.492188 2.578125 -9.328125 C 2.578125 -8.929688 2.800781 -8.523438 3.25 -8.109375 L 4.640625 -6.765625 C 4.972656 -6.453125 5.242188 -6.148438 5.453125 -5.859375 C 5.671875 -5.578125 5.84375 -5.242188 5.96875 -4.859375 C 6.101562 -4.472656 6.171875 -4.015625 6.171875 -3.484375 C 6.171875 -2.304688 5.953125 -1.410156 5.515625 -0.796875 C 5.085938 -0.191406 4.375 0.109375 3.375 0.109375 Z M 3.375 0.109375 "/></g></g></g><g fill="#ffffff" fill-opacity="1"><g transform="translate(119.498231, 38.009181)"><g><path d="M 0.484375 -12.0625 L 3 -12.0625 L 3 -9.203125 C 3.257812 -9.953125 3.757812 -10.328125 4.5 -10.328125 C 5.1875 -10.328125 5.703125 -10.109375 6.046875 -9.671875 C 6.398438 -9.234375 6.578125 -8.632812 6.578125 -7.875 L 6.578125 0 L 4.140625 0 L 4.140625 -7.71875 C 4.140625 -7.9375 4.085938 -8.113281 3.984375 -8.25 C 3.890625 -8.394531 3.742188 -8.46875 3.546875 -8.46875 C 3.378906 -8.46875 3.242188 -8.394531 3.140625 -8.25 C 3.046875 -8.101562 3 -7.929688 3 -7.734375 L 3 0 L 0.484375 0 Z M 0.484375 -12.0625 "/></g></g></g><g fill="#ffffff" fill-opacity="1"><g transform="translate(127.284485, 38.009181)"><g><path d="M 0.46875 -10.890625 L 0.46875 -12.59375 L 2.921875 -12.59375 L 2.921875 -10.890625 Z M 0.46875 0 L 0.46875 -10.21875 L 2.921875 -10.21875 L 2.921875 0 Z M 0.46875 0 "/></g></g></g><g fill="#ffffff" fill-opacity="1"><g transform="translate(131.414895, 38.009181)"><g><path d="M 3.34375 0.109375 C 2.289062 0.109375 1.535156 -0.175781 1.078125 -0.75 C 0.628906 -1.332031 0.40625 -2.191406 0.40625 -3.328125 L 0.40625 -7.4375 C 0.40625 -8.375 0.671875 -9.085938 1.203125 -9.578125 C 1.742188 -10.078125 2.5 -10.328125 3.46875 -10.328125 C 5.4375 -10.328125 6.421875 -9.363281 6.421875 -7.4375 L 6.421875 -6.703125 C 6.421875 -5.953125 6.410156 -5.347656 6.390625 -4.890625 L 2.84375 -4.890625 L 2.84375 -2.90625 C 2.84375 -2.550781 2.878906 -2.269531 2.953125 -2.0625 C 3.023438 -1.863281 3.1875 -1.765625 3.4375 -1.765625 C 3.625 -1.765625 3.753906 -1.820312 3.828125 -1.9375 C 3.910156 -2.050781 3.957031 -2.179688 3.96875 -2.328125 C 3.976562 -2.472656 3.984375 -2.679688 3.984375 -2.953125 L 3.984375 -3.953125 L 6.421875 -3.953125 L 6.421875 -3.359375 C 6.421875 -2.171875 6.1875 -1.296875 5.71875 -0.734375 C 5.257812 -0.171875 4.46875 0.109375 3.34375 0.109375 Z M 3.984375 -6.09375 L 3.984375 -7.40625 C 3.984375 -8.144531 3.804688 -8.515625 3.453125 -8.515625 C 3.035156 -8.515625 2.828125 -8.144531 2.828125 -7.40625 L 2.828125 -6.09375 Z M 3.984375 -6.09375 "/></g></g></g><g fill="#ffffff" fill-opacity="1"><g transform="translate(138.963937, 38.009181)"><g><path d="M 0.484375 0 L 0.484375 -12.0625 L 2.96875 -12.0625 L 2.96875 0 Z M 0.484375 0 "/></g></g></g><g fill="#ffffff" fill-opacity="1"><g transform="translate(143.164115, 38.009181)"><g><path d="M 2.34375 0.109375 C 1.550781 0.109375 1.007812 -0.148438 0.71875 -0.671875 C 0.425781 -1.203125 0.28125 -1.957031 0.28125 -2.9375 C 0.28125 -3.726562 0.382812 -4.335938 0.59375 -4.765625 C 0.800781 -5.191406 1.085938 -5.503906 1.453125 -5.703125 C 1.828125 -5.910156 2.398438 -6.132812 3.171875 -6.375 L 3.84375 -6.59375 L 3.84375 -7.640625 C 3.84375 -7.910156 3.785156 -8.117188 3.671875 -8.265625 C 3.566406 -8.410156 3.441406 -8.484375 3.296875 -8.484375 C 3.160156 -8.484375 3.039062 -8.421875 2.9375 -8.296875 C 2.84375 -8.179688 2.796875 -8.019531 2.796875 -7.8125 L 2.796875 -7.203125 L 0.4375 -7.203125 L 0.4375 -7.53125 C 0.4375 -8.539062 0.671875 -9.257812 1.140625 -9.6875 C 1.609375 -10.113281 2.375 -10.328125 3.4375 -10.328125 C 4.28125 -10.328125 4.96875 -10.101562 5.5 -9.65625 C 6.03125 -9.21875 6.296875 -8.59375 6.296875 -7.78125 L 6.296875 0 L 3.859375 0 L 3.859375 -1.21875 C 3.742188 -0.800781 3.550781 -0.472656 3.28125 -0.234375 C 3.019531 -0.00390625 2.707031 0.109375 2.34375 0.109375 Z M 3.3125 -1.78125 C 3.5 -1.78125 3.628906 -1.859375 3.703125 -2.015625 C 3.785156 -2.171875 3.828125 -2.359375 3.828125 -2.578125 L 3.828125 -5.421875 C 3.460938 -5.285156 3.191406 -5.109375 3.015625 -4.890625 C 2.847656 -4.679688 2.765625 -4.382812 2.765625 -4 L 2.765625 -2.6875 C 2.765625 -2.082031 2.945312 -1.78125 3.3125 -1.78125 Z M 3.3125 -1.78125 "/></g></g></g><g fill="#f4f2f2" fill-opacity="1"><g transform="translate(104.631145, 44.960274)"><g><path d="M 4.125 0 L 3.75 -1.078125 L 1.546875 -1.078125 L 1.15625 0 L 0.265625 0 L 2.15625 -5.28125 L 3.15625 -5.28125 L 5.046875 0 Z M 1.78125 -1.75 L 3.515625 -1.75 L 2.65625 -4.234375 Z M 1.78125 -1.75 "/></g></g></g><g fill="#f4f2f2" fill-opacity="1"><g transform="translate(109.923989, 44.960274)"><g><path d="M 1.4375 -4.1875 L 1.4375 -3.53125 C 1.71875 -4.007812 2.160156 -4.25 2.765625 -4.25 C 3.242188 -4.25 3.632812 -4.09375 3.9375 -3.78125 C 4.238281 -3.46875 4.390625 -3.03125 4.390625 -2.46875 L 4.390625 0 L 3.53125 0 L 3.53125 -2.34375 C 3.53125 -2.71875 3.4375 -3.003906 3.25 -3.203125 C 3.070312 -3.398438 2.816406 -3.5 2.484375 -3.5 C 2.160156 -3.5 1.90625 -3.398438 1.71875 -3.203125 C 1.53125 -3.003906 1.4375 -2.71875 1.4375 -2.34375 L 1.4375 0 L 0.5625 0 L 0.5625 -4.1875 Z M 1.4375 -4.1875 "/></g></g></g><g fill="#f4f2f2" fill-opacity="1"><g transform="translate(114.852331, 44.960274)"><g><path d="M 3.328125 -1.0625 C 3.578125 -1.320312 3.703125 -1.664062 3.703125 -2.09375 C 3.703125 -2.519531 3.578125 -2.859375 3.328125 -3.109375 C 3.078125 -3.367188 2.78125 -3.5 2.4375 -3.5 C 2.09375 -3.5 1.796875 -3.375 1.546875 -3.125 C 1.296875 -2.875 1.171875 -2.535156 1.171875 -2.109375 C 1.171875 -1.679688 1.296875 -1.335938 1.546875 -1.078125 C 1.796875 -0.816406 2.09375 -0.6875 2.4375 -0.6875 C 2.78125 -0.6875 3.078125 -0.8125 3.328125 -1.0625 Z M 2.25 0.0625 C 1.695312 0.0625 1.226562 -0.140625 0.84375 -0.546875 C 0.46875 -0.953125 0.28125 -1.472656 0.28125 -2.109375 C 0.28125 -2.742188 0.46875 -3.257812 0.84375 -3.65625 C 1.21875 -4.050781 1.6875 -4.25 2.25 -4.25 C 2.582031 -4.25 2.875 -4.171875 3.125 -4.015625 C 3.375 -3.867188 3.566406 -3.675781 3.703125 -3.4375 L 3.703125 -4.1875 L 4.578125 -4.1875 L 4.578125 0 L 3.703125 0 L 3.703125 -0.78125 C 3.566406 -0.519531 3.375 -0.3125 3.125 -0.15625 C 2.875 -0.0078125 2.582031 0.0625 2.25 0.0625 Z M 2.25 0.0625 "/></g></g></g><g fill="#f4f2f2" fill-opacity="1"><g transform="translate(120.000895, 44.960274)"><g><path d="M 0.5625 0 L 0.5625 -5.625 L 1.4375 -5.625 L 1.4375 0 Z M 0.5625 0 "/></g></g></g><g fill="#f4f2f2" fill-opacity="1"><g transform="translate(122.005645, 44.960274)"><g><path d="M 1.71875 -0.0625 L 0.078125 -4.1875 L 1.046875 -4.1875 L 2.21875 -1 L 3.4375 -4.1875 L 4.34375 -4.1875 L 1.765625 1.96875 L 0.875 1.96875 Z M 1.71875 -0.0625 "/></g></g></g><g fill="#f4f2f2" fill-opacity="1"><g transform="translate(126.425206, 44.960274)"><g><path d="M 2.59375 -3.484375 L 1.578125 -3.484375 L 1.578125 -1.15625 C 1.578125 -1 1.613281 -0.882812 1.6875 -0.8125 C 1.757812 -0.75 1.882812 -0.71875 2.0625 -0.71875 L 2.59375 -0.71875 L 2.59375 0 L 1.90625 0 C 1.101562 0 0.703125 -0.382812 0.703125 -1.15625 L 0.703125 -3.484375 L 0.21875 -3.484375 L 0.21875 -4.1875 L 0.703125 -4.1875 L 0.703125 -5.21875 L 1.578125 -5.21875 L 1.578125 -4.1875 L 2.59375 -4.1875 Z M 2.59375 -3.484375 "/></g></g></g><g fill="#f4f2f2" fill-opacity="1"><g transform="translate(129.250082, 44.960274)"><g><path d="M 1.5625 -5.296875 C 1.5625 -5.140625 1.503906 -5.003906 1.390625 -4.890625 C 1.285156 -4.785156 1.15625 -4.734375 1 -4.734375 C 0.851562 -4.734375 0.722656 -4.785156 0.609375 -4.890625 C 0.503906 -5.003906 0.453125 -5.140625 0.453125 -5.296875 C 0.453125 -5.453125 0.503906 -5.582031 0.609375 -5.6875 C 0.722656 -5.789062 0.851562 -5.84375 1 -5.84375 C 1.15625 -5.84375 1.285156 -5.789062 1.390625 -5.6875 C 1.503906 -5.582031 1.5625 -5.453125 1.5625 -5.296875 Z M 0.5625 0 L 0.5625 -4.1875 L 1.4375 -4.1875 L 1.4375 0 Z M 0.5625 0 "/></g></g></g><g fill="#f4f2f2" fill-opacity="1"><g transform="translate(131.254831, 44.960274)"><g><path d="M 2.328125 0.0625 C 1.722656 0.0625 1.226562 -0.128906 0.84375 -0.515625 C 0.46875 -0.910156 0.28125 -1.429688 0.28125 -2.078125 C 0.28125 -2.734375 0.46875 -3.257812 0.84375 -3.65625 C 1.226562 -4.050781 1.722656 -4.25 2.328125 -4.25 C 2.835938 -4.25 3.253906 -4.128906 3.578125 -3.890625 C 3.910156 -3.648438 4.140625 -3.304688 4.265625 -2.859375 L 3.328125 -2.859375 C 3.171875 -3.304688 2.835938 -3.53125 2.328125 -3.53125 C 1.972656 -3.53125 1.691406 -3.398438 1.484375 -3.140625 C 1.273438 -2.890625 1.171875 -2.539062 1.171875 -2.09375 C 1.171875 -1.644531 1.273438 -1.289062 1.484375 -1.03125 C 1.691406 -0.78125 1.972656 -0.65625 2.328125 -0.65625 C 2.828125 -0.65625 3.160156 -0.878906 3.328125 -1.328125 L 4.265625 -1.328125 C 4.140625 -0.898438 3.910156 -0.5625 3.578125 -0.3125 C 3.242188 -0.0625 2.828125 0.0625 2.328125 0.0625 Z M 2.328125 0.0625 "/></g></g></g><g fill="#f4f2f2" fill-opacity="1"><g transform="translate(135.811079, 44.960274)"><g><path d="M 3.328125 -1.0625 C 3.578125 -1.320312 3.703125 -1.664062 3.703125 -2.09375 C 3.703125 -2.519531 3.578125 -2.859375 3.328125 -3.109375 C 3.078125 -3.367188 2.78125 -3.5 2.4375 -3.5 C 2.09375 -3.5 1.796875 -3.375 1.546875 -3.125 C 1.296875 -2.875 1.171875 -2.535156 1.171875 -2.109375 C 1.171875 -1.679688 1.296875 -1.335938 1.546875 -1.078125 C 1.796875 -0.816406 2.09375 -0.6875 2.4375 -0.6875 C 2.78125 -0.6875 3.078125 -0.8125 3.328125 -1.0625 Z M 2.25 0.0625 C 1.695312 0.0625 1.226562 -0.140625 0.84375 -0.546875 C 0.46875 -0.953125 0.28125 -1.472656 0.28125 -2.109375 C 0.28125 -2.742188 0.46875 -3.257812 0.84375 -3.65625 C 1.21875 -4.050781 1.6875 -4.25 2.25 -4.25 C 2.582031 -4.25 2.875 -4.171875 3.125 -4.015625 C 3.375 -3.867188 3.566406 -3.675781 3.703125 -3.4375 L 3.703125 -4.1875 L 4.578125 -4.1875 L 4.578125 0 L 3.703125 0 L 3.703125 -0.78125 C 3.566406 -0.519531 3.375 -0.3125 3.125 -0.15625 C 2.875 -0.0078125 2.582031 0.0625 2.25 0.0625 Z M 2.25 0.0625 "/></g></g></g><g fill="#f4f2f2" fill-opacity="1"><g transform="translate(140.959643, 44.960274)"><g><path d="M 0.5625 0 L 0.5625 -5.625 L 1.4375 -5.625 L 1.4375 0 Z M 0.5625 0 "/></g></g></g><g fill="#f4f2f2" fill-opacity="1"><g transform="translate(142.964392, 44.960274)"><g><path d="M 2.984375 0.046875 C 2.222656 0.046875 1.582031 -0.203125 1.0625 -0.703125 C 0.539062 -1.210938 0.28125 -1.859375 0.28125 -2.640625 C 0.28125 -3.421875 0.539062 -4.066406 1.0625 -4.578125 C 1.582031 -5.085938 2.222656 -5.34375 2.984375 -5.34375 C 3.535156 -5.34375 4.03125 -5.203125 4.46875 -4.921875 C 4.914062 -4.648438 5.234375 -4.265625 5.421875 -3.765625 L 4.390625 -3.765625 C 4.109375 -4.296875 3.640625 -4.5625 2.984375 -4.5625 C 2.441406 -4.5625 2.003906 -4.382812 1.671875 -4.03125 C 1.335938 -3.6875 1.171875 -3.222656 1.171875 -2.640625 C 1.171875 -2.066406 1.335938 -1.601562 1.671875 -1.25 C 2.003906 -0.90625 2.441406 -0.734375 2.984375 -0.734375 C 3.640625 -0.734375 4.109375 -1 4.390625 -1.53125 L 5.421875 -1.53125 C 5.234375 -1.03125 4.914062 -0.640625 4.46875 -0.359375 C 4.03125 -0.0859375 3.535156 0.046875 2.984375 0.046875 Z M 2.984375 0.046875 "/></g></g></g><g fill="#f4f2f2" fill-opacity="1"><g transform="translate(148.834361, 44.960274)"><g><path d="M 3.5 -4.1875 L 4.359375 -4.1875 L 4.359375 0 L 3.5 0 L 3.5 -0.65625 C 3.21875 -0.175781 2.769531 0.0625 2.15625 0.0625 C 1.6875 0.0625 1.296875 -0.09375 0.984375 -0.40625 C 0.679688 -0.71875 0.53125 -1.15625 0.53125 -1.71875 L 0.53125 -4.1875 L 1.390625 -4.1875 L 1.390625 -1.84375 C 1.390625 -1.46875 1.484375 -1.179688 1.671875 -0.984375 C 1.859375 -0.785156 2.113281 -0.6875 2.4375 -0.6875 C 2.757812 -0.6875 3.015625 -0.785156 3.203125 -0.984375 C 3.398438 -1.179688 3.5 -1.46875 3.5 -1.84375 Z M 3.5 -4.1875 "/></g></g></g><g fill="#f4f2f2" fill-opacity="1"><g transform="translate(153.762703, 44.960274)"><g><path d="M 3.59375 -1.078125 C 3.851562 -1.335938 3.984375 -1.679688 3.984375 -2.109375 C 3.984375 -2.535156 3.859375 -2.875 3.609375 -3.125 C 3.359375 -3.375 3.054688 -3.5 2.703125 -3.5 C 2.359375 -3.5 2.0625 -3.367188 1.8125 -3.109375 C 1.5625 -2.859375 1.4375 -2.519531 1.4375 -2.09375 C 1.4375 -1.664062 1.5625 -1.320312 1.8125 -1.0625 C 2.0625 -0.8125 2.359375 -0.6875 2.703125 -0.6875 C 3.046875 -0.6875 3.34375 -0.816406 3.59375 -1.078125 Z M 2.890625 -4.25 C 3.453125 -4.25 3.921875 -4.050781 4.296875 -3.65625 C 4.671875 -3.257812 4.859375 -2.742188 4.859375 -2.109375 C 4.859375 -1.472656 4.671875 -0.953125 4.296875 -0.546875 C 3.921875 -0.140625 3.453125 0.0625 2.890625 0.0625 C 2.566406 0.0625 2.28125 -0.0078125 2.03125 -0.15625 C 1.78125 -0.3125 1.582031 -0.519531 1.4375 -0.78125 L 1.4375 0 L 0.5625 0 L 0.5625 -5.625 L 1.4375 -5.625 L 1.4375 -3.4375 C 1.570312 -3.675781 1.765625 -3.867188 2.015625 -4.015625 C 2.273438 -4.171875 2.566406 -4.25 2.890625 -4.25 Z M 2.890625 -4.25 "/></g></g></g><g fill="#f4f2f2" fill-opacity="1"><g transform="translate(158.911267, 44.960274)"><g><path d="M 2.328125 0.0625 C 1.722656 0.0625 1.226562 -0.128906 0.84375 -0.515625 C 0.46875 -0.910156 0.28125 -1.4375 0.28125 -2.09375 C 0.28125 -2.75 0.472656 -3.269531 0.859375 -3.65625 C 1.242188 -4.050781 1.738281 -4.25 2.34375 -4.25 C 2.957031 -4.25 3.453125 -4.0625 3.828125 -3.6875 C 4.210938 -3.3125 4.40625 -2.816406 4.40625 -2.203125 C 4.40625 -2.054688 4.394531 -1.921875 4.375 -1.796875 L 1.171875 -1.796875 C 1.191406 -1.453125 1.304688 -1.175781 1.515625 -0.96875 C 1.734375 -0.757812 2.003906 -0.65625 2.328125 -0.65625 C 2.796875 -0.65625 3.128906 -0.851562 3.328125 -1.25 L 4.265625 -1.25 C 4.128906 -0.863281 3.894531 -0.546875 3.5625 -0.296875 C 3.226562 -0.0546875 2.816406 0.0625 2.328125 0.0625 Z M 3.5 -2.390625 C 3.5 -2.734375 3.382812 -3.007812 3.15625 -3.21875 C 2.9375 -3.425781 2.664062 -3.53125 2.34375 -3.53125 C 2.03125 -3.53125 1.765625 -3.425781 1.546875 -3.21875 C 1.328125 -3.007812 1.203125 -2.734375 1.171875 -2.390625 Z M 3.5 -2.390625 "/></g></g></g></svg>